<svg xmlns="http://www.w3.org/2000/svg" xmlns:xlink="http://www.w3.org/1999/xlink" width="1366" zoomAndPan="magnify" viewBox="0 0 1024.5 390" height="520" preserveAspectRatio="xMidYMid meet" version="1.0"><defs><clipPath id="a4dca2288c"><path d="M 0 0.09375 L 1024 0.09375 L 1024 389.902344 L 0 389.902344 Z M 0 0.09375 " clip-rule="nonzero"/></clipPath><clipPath id="ee744701a4"><path d="M 318.058594 1.058594 L 705.621094 1.058594 L 705.621094 388.621094 L 318.058594 388.621094 Z M 318.058594 1.058594 " clip-rule="nonzero"/></clipPath></defs><g clip-path="url(#a4dca2288c)"><path fill="#ffffff" d="M 0 0.09375 L 1024 0.09375 L 1024 389.90625 L 0 389.90625 Z M 0 0.09375 " fill-opacity="1" fill-rule="nonzero"/></g><g clip-path="url(#ee744701a4)"><path fill="#000000" d="M 618.640625 342.953125 C 618.578125 342.890625 618.511719 342.832031 618.449219 342.773438 L 601.996094 328.726562 C 602.632812 327.171875 602.921875 325.507812 602.847656 323.855469 L 660.914062 309.011719 L 627.660156 342.871094 C 625.195312 345.378906 621.148438 345.417969 618.640625 342.953125 Z M 563.398438 332.0625 L 600.007812 294.785156 C 603.640625 295.464844 607.535156 294.382812 610.316406 291.546875 C 613.101562 288.714844 614.113281 284.800781 613.371094 281.183594 L 649.902344 243.984375 C 646.910156 252.414062 643.136719 260.5625 638.625 268.339844 L 594.476562 313.296875 C 590.582031 312.214844 586.234375 313.21875 583.203125 316.304688 C 580.933594 318.617188 579.84375 321.648438 579.921875 324.648438 C 574.566406 327.464844 569.050781 329.9375 563.398438 332.0625 Z M 544.339844 374.511719 C 544.371094 378.027344 541.535156 380.917969 538.015625 380.949219 L 523.617188 381.082031 L 545.800781 350.363281 L 544.347656 374.25 C 544.34375 374.335938 544.339844 374.425781 544.339844 374.511719 Z M 516.769531 298.273438 L 522.980469 306.839844 C 520.824219 311.171875 521.578125 316.566406 525.214844 320.136719 C 527.875 322.75 531.484375 323.800781 534.910156 323.300781 L 542.113281 333.246094 C 539.859375 336.511719 539.484375 340.679688 540.992188 344.242188 L 517.472656 376.804688 Z M 549.75 282.300781 C 550.996094 281.761719 552.226562 281.195312 553.441406 280.605469 L 536.175781 300.859375 C 533.597656 300.179688 530.832031 300.414062 528.386719 301.558594 L 519.859375 289.789062 C 530.195312 288.941406 540.222656 286.433594 549.75 282.300781 Z M 424.46875 195.785156 C 424.03125 147.464844 462.988281 107.804688 511.308594 107.371094 C 544.265625 107.070312 574.765625 125.519531 589.902344 154.632812 C 590.035156 155.285156 590.339844 155.898438 590.792969 156.398438 C 590.820312 156.453125 590.84375 156.507812 590.871094 156.558594 C 590.925781 156.886719 591.023438 157.207031 591.171875 157.511719 C 596.628906 169.019531 599.453125 181.367188 599.570312 194.210938 C 599.730469 212.449219 594.285156 229.457031 584.835938 243.582031 L 577.050781 253.585938 C 561.195312 271.195312 538.308594 282.375 512.804688 282.625 C 464.523438 283.015625 424.902344 244.078125 424.46875 195.785156 Z M 649.734375 160.179688 L 635.0625 179.035156 L 605.996094 158.203125 Z M 645.855469 135.84375 C 648.292969 141.355469 650.390625 147.03125 652.121094 152.796875 L 613.699219 151.0625 Z M 625.257812 191.636719 C 621.496094 190.761719 617.378906 191.8125 614.472656 194.769531 C 610.910156 198.398438 610.253906 203.789062 612.464844 208.078125 L 604.023438 218.921875 C 606.113281 210.886719 607.125 202.59375 607.046875 194.140625 C 606.957031 183.964844 605.292969 174.082031 602.101562 164.617188 L 630.464844 184.945312 Z M 690.496094 162.546875 L 672.65625 171.691406 C 668.121094 167.503906 661.046875 167.640625 656.6875 172.078125 C 654.140625 174.675781 653.078125 178.171875 653.488281 181.519531 L 635.386719 190.804688 L 658.871094 160.621094 Z M 697.660156 167.285156 C 697.800781 167.804688 697.882812 168.351562 697.890625 168.917969 L 698.316406 216.710938 L 674.046875 187.003906 C 675.96875 184.453125 676.683594 181.292969 676.199219 178.285156 Z M 692.003906 224.164062 C 691.917969 224.171875 691.832031 224.171875 691.742188 224.179688 L 668.40625 226.019531 C 667.855469 224.9375 667.128906 223.921875 666.214844 223.023438 C 662.40625 219.285156 656.652344 218.742188 652.273438 221.363281 L 633.582031 206.320312 C 634.234375 204.28125 634.304688 202.097656 633.789062 200.027344 L 656.777344 188.246094 L 656.832031 188.304688 C 659.832031 191.246094 664.035156 192.207031 667.820312 191.207031 L 694.363281 223.691406 C 693.632812 223.992188 692.839844 224.15625 692.003906 224.164062 Z M 600.46875 272.15625 C 598.230469 272.484375 596.066406 273.472656 594.300781 275.125 L 580.167969 261.265625 C 584.328125 256.988281 588.039062 252.375 591.296875 247.464844 L 614.074219 218.1875 Z M 590.746094 282.117188 C 590.578125 283.480469 590.660156 284.867188 590.980469 286.210938 L 543.589844 303.695312 L 575.082031 266.757812 Z M 647.464844 227.09375 C 646.40625 229.855469 646.453125 232.929688 647.597656 235.65625 L 609.355469 274.59375 C 608.871094 274.199219 608.363281 273.851562 607.835938 273.546875 L 622.777344 214.285156 C 624.992188 214.261719 627.191406 213.601562 629.09375 212.308594 Z M 548.144531 328.808594 L 541.613281 319.804688 C 543.855469 317.414062 544.886719 314.304688 544.703125 311.261719 L 589.617188 294.691406 L 555.8125 329.105469 C 553.363281 328.128906 550.644531 328.03125 548.144531 328.808594 Z M 641.488281 276.109375 L 661.601562 298.832031 C 661.664062 298.898438 661.722656 298.964844 661.785156 299.019531 C 662.308594 299.535156 662.722656 300.125 663.03125 300.746094 L 601.953125 316.363281 Z M 671.164062 303.742188 C 671.175781 303.558594 671.175781 303.375 671.160156 303.1875 C 671.066406 299.769531 669.722656 296.382812 667.125 293.78125 L 646.207031 270.15625 C 651.121094 261.390625 655.148438 252.191406 658.25 242.683594 C 661.195312 242.664062 664.136719 241.515625 666.359375 239.25 C 667.988281 237.589844 669.007812 235.566406 669.429688 233.445312 L 692.210938 231.644531 C 696.273438 231.570312 699.90625 229.738281 702.394531 226.886719 C 702.5 226.777344 702.59375 226.660156 702.6875 226.542969 C 704.664062 224.121094 705.839844 221.023438 705.808594 217.660156 L 705.371094 168.851562 C 705.339844 165.496094 704.109375 162.425781 702.097656 160.042969 C 701.996094 159.910156 701.890625 159.785156 701.773438 159.667969 C 699.234375 156.875 695.578125 155.121094 691.523438 155.113281 L 660.039062 153.195312 C 657.820312 145.328125 654.957031 137.605469 651.503906 130.1875 C 651.449219 129.84375 651.347656 129.503906 651.195312 129.175781 C 649.308594 125.195312 647.226562 121.257812 644.996094 117.4375 L 665.484375 93.4375 C 670.742188 87.976562 670.632812 79.257812 665.210938 73.933594 L 630.382812 39.730469 C 624.96875 34.40625 616.246094 34.453125 610.882812 39.808594 L 587.25 60.726562 C 575.886719 54.355469 563.792969 49.464844 551.226562 46.167969 L 548.746094 14.722656 C 548.597656 7.140625 542.359375 1.054688 534.757812 1.125 L 485.949219 1.566406 C 478.351562 1.632812 472.21875 7.832031 472.210938 15.410156 L 470.296875 46.898438 C 457.789062 50.417969 445.785156 55.523438 434.539062 62.101562 L 410.539062 41.613281 C 405.078125 36.355469 396.359375 36.464844 391.035156 41.886719 L 356.828125 76.707031 C 351.507812 82.128906 351.554688 90.847656 356.90625 96.214844 L 377.824219 119.839844 C 371.453125 131.207031 366.566406 143.300781 363.269531 155.867188 L 331.820312 158.351562 C 324.242188 158.492188 318.15625 164.738281 318.226562 172.335938 L 318.664062 221.144531 C 318.730469 228.742188 324.929688 234.875 332.511719 234.882812 L 364 236.800781 C 367.519531 249.308594 372.625 261.308594 379.199219 272.558594 L 358.710938 296.558594 C 353.453125 302.019531 353.566406 310.738281 358.984375 316.0625 L 393.808594 350.265625 C 399.226562 355.589844 407.949219 355.542969 413.3125 350.1875 L 436.941406 329.269531 C 448.304688 335.640625 460.398438 340.53125 472.96875 343.828125 L 475.449219 375.273438 C 475.59375 382.847656 481.839844 388.9375 489.433594 388.871094 L 513.679688 388.652344 L 513.839844 388.652344 L 516.277344 388.625 L 516.289062 388.625 L 538.085938 388.433594 C 545.683594 388.363281 551.816406 382.164062 551.824219 374.585938 L 553.25 351.109375 C 555.632812 350.757812 557.925781 349.652344 559.742188 347.800781 C 561.835938 345.671875 562.929688 342.929688 563.019531 340.160156 C 569.726562 337.800781 576.261719 334.972656 582.585938 331.699219 C 582.824219 331.984375 583.078125 332.261719 583.351562 332.53125 C 587.085938 336.199219 592.695312 336.792969 597.035156 334.335938 L 613.5 348.386719 C 618.957031 353.640625 627.675781 353.53125 633 348.113281 L 667.203125 313.289062 C 669.808594 310.636719 671.128906 307.195312 671.164062 303.742188 " fill-opacity="1" fill-rule="nonzero"/></g></svg>