<svg width="1920" height="1080" viewBox="0 0 1920 1080" fill="none" xmlns="http://www.w3.org/2000/svg">
<rect width="1920" height="1080" fill="#FF8800"/>
<g id="lines 1">
<path id="gear" d="M1159.95 817.406C1159.83 817.292 1159.71 817.182 1159.59 817.073L1128.74 790.734C1129.93 787.818 1130.47 784.698 1130.34 781.604L1239.21 753.771L1176.86 817.25C1172.24 821.953 1164.65 822.026 1159.95 817.406ZM1056.36 796.99L1125.02 727.094C1131.83 728.37 1139.12 726.339 1144.34 721.021C1149.57 715.708 1151.46 708.375 1150.07 701.589L1218.56 631.849C1212.95 647.646 1205.88 662.927 1197.42 677.51L1114.64 761.802C1107.34 759.771 1099.19 761.656 1093.51 767.448C1089.25 771.776 1087.21 777.458 1087.35 783.089C1077.31 788.37 1066.96 793.005 1056.36 796.99ZM1020.64 876.583C1020.69 883.177 1015.38 888.594 1008.78 888.651L981.781 888.896L1023.38 831.302L1020.65 876.094C1020.64 876.25 1020.64 876.422 1020.64 876.583ZM968.943 733.635L980.583 749.698C976.547 757.818 977.958 767.932 984.771 774.63C989.76 779.526 996.531 781.5 1002.95 780.562L1016.46 799.208C1012.23 805.333 1011.54 813.146 1014.36 819.823L970.26 880.885L968.943 733.635ZM1030.78 703.688C1033.11 702.677 1035.42 701.615 1037.7 700.51L1005.32 738.484C1000.49 737.214 995.307 737.651 990.724 739.797L974.734 717.724C994.115 716.141 1012.92 711.438 1030.78 703.688ZM795.875 541.474C795.057 450.87 868.104 376.505 958.703 375.693C1020.49 375.135 1077.68 409.724 1106.06 464.307C1106.31 465.536 1106.89 466.677 1107.73 467.625C1107.78 467.724 1107.83 467.828 1107.88 467.922C1107.98 468.536 1108.17 469.141 1108.44 469.708C1118.67 491.281 1123.97 514.432 1124.19 538.521C1124.49 572.719 1114.28 604.604 1096.57 631.089L1081.97 649.844C1052.24 682.865 1009.32 703.823 961.505 704.297C870.979 705.026 796.693 632.021 795.875 541.474ZM1218.25 474.714L1190.74 510.068L1136.24 471.005L1218.25 474.714ZM1210.97 429.083C1215.55 439.417 1219.48 450.057 1222.73 460.87L1150.68 457.62L1210.97 429.083ZM1172.35 533.688C1165.3 532.052 1157.58 534.021 1152.14 539.568C1145.45 546.37 1144.22 556.479 1148.37 564.516L1132.54 584.854C1136.46 569.781 1138.35 554.234 1138.21 538.391C1138.05 519.307 1134.92 500.776 1128.94 483.031L1182.11 521.146L1172.35 533.688ZM1294.68 479.151L1261.22 496.297C1252.72 488.438 1239.46 488.698 1231.29 497.021C1226.51 501.891 1224.52 508.448 1225.29 514.724L1191.35 532.13L1235.38 475.536L1294.68 479.151ZM1308.11 488.031C1308.37 489.005 1308.53 490.036 1308.54 491.094L1309.34 580.703L1263.83 525.005C1267.43 520.224 1268.78 514.297 1267.87 508.656L1308.11 488.031ZM1297.5 594.682C1297.34 594.693 1297.18 594.698 1297.02 594.708L1253.26 598.161C1252.23 596.13 1250.86 594.229 1249.15 592.542C1242.01 585.531 1231.22 584.51 1223.01 589.432L1187.96 561.224C1189.19 557.401 1189.32 553.307 1188.35 549.427L1231.45 527.333L1231.56 527.443C1237.18 532.964 1245.06 534.76 1252.16 532.885L1301.93 593.792C1300.56 594.359 1299.07 594.672 1297.5 594.682ZM1125.88 684.661C1121.68 685.281 1117.62 687.135 1114.31 690.229L1087.81 664.25C1095.61 656.224 1102.57 647.578 1108.68 638.37L1151.39 583.474L1125.88 684.661ZM1107.65 703.339C1107.33 705.901 1107.48 708.5 1108.09 711.016L1019.22 743.802L1078.28 674.542L1107.65 703.339ZM1213.99 600.177C1212.01 605.349 1212.1 611.12 1214.24 616.224L1142.54 689.234C1141.63 688.495 1140.68 687.844 1139.69 687.276L1167.7 576.156C1171.85 576.109 1175.98 574.875 1179.54 572.453L1213.99 600.177ZM1027.77 790.885L1015.53 774.005C1019.73 769.521 1021.66 763.693 1021.31 757.984L1105.53 726.917L1042.15 791.443C1037.55 789.609 1032.45 789.432 1027.77 790.885ZM1202.78 692.078L1240.5 734.682C1240.61 734.807 1240.73 734.927 1240.84 735.036C1241.82 736 1242.6 737.104 1243.18 738.271L1128.66 767.552L1202.78 692.078ZM1258.43 743.891C1258.45 743.542 1258.45 743.198 1258.43 742.854C1258.24 736.438 1255.72 730.089 1250.86 725.214L1211.64 680.911C1220.85 664.479 1228.4 647.234 1234.21 629.401C1239.73 629.365 1245.25 627.214 1249.42 622.964C1252.47 619.854 1254.39 616.057 1255.17 612.083L1297.89 608.708C1305.51 608.562 1312.32 605.135 1316.99 599.786C1317.18 599.583 1317.36 599.365 1317.53 599.141C1321.24 594.599 1323.44 588.797 1323.39 582.49L1322.57 490.969C1322.51 484.682 1320.2 478.922 1316.43 474.453C1316.24 474.203 1316.04 473.974 1315.82 473.755C1311.06 468.516 1304.2 465.224 1296.6 465.214L1237.57 461.615C1233.41 446.865 1228.04 432.385 1221.57 418.479C1221.46 417.833 1221.27 417.193 1220.98 416.583C1217.45 409.115 1213.55 401.729 1209.36 394.568L1247.78 349.568C1257.64 339.328 1257.43 322.984 1247.27 313L1181.97 248.87C1171.81 238.885 1155.46 238.974 1145.4 249.016L1101.09 288.24C1079.79 276.286 1057.11 267.125 1033.55 260.943L1028.9 201.979C1028.62 187.766 1016.92 176.354 1002.67 176.484L911.156 177.313C896.911 177.438 885.411 189.057 885.396 203.271L881.802 262.307C858.354 268.911 835.849 278.479 814.76 290.812L769.755 252.396C759.521 242.536 743.172 242.75 733.187 252.911L669.057 318.203C659.078 328.365 659.161 344.714 669.198 354.776L708.422 399.073C696.474 420.385 687.312 443.062 681.13 466.625L622.167 471.281C607.958 471.547 596.547 483.26 596.672 497.5L597.495 589.021C597.625 603.266 609.245 614.766 623.458 614.781L682.5 618.375C689.099 641.823 698.667 664.328 711 685.422L672.583 730.417C662.724 740.656 662.932 757.005 673.094 766.99L738.391 831.12C748.552 841.099 764.901 841.016 774.964 830.974L819.266 791.75C840.573 803.698 863.245 812.865 886.812 819.047L891.464 878.01C891.734 892.214 903.448 903.625 917.688 903.505L963.151 903.089H963.448L968.021 903.047H968.042L1008.91 902.682C1023.15 902.552 1034.65 890.932 1034.67 876.719L1037.34 832.703C1041.81 832.042 1046.11 829.974 1049.52 826.495C1053.44 822.505 1055.49 817.365 1055.66 812.172C1068.23 807.75 1080.49 802.443 1092.34 796.307C1092.79 796.844 1093.27 797.365 1093.78 797.87C1100.78 804.745 1111.3 805.854 1119.44 801.25L1150.31 827.599C1160.55 837.453 1176.89 837.24 1186.88 827.083L1251.01 761.786C1255.89 756.818 1258.36 750.359 1258.43 743.891Z" fill="white"/>
<g id="lines">
<g id="Home">
<path id="Vector" d="M555.324 240.279C555.324 244.383 555.293 248.795 554.991 249.331C554.663 249.331 554.303 249.331 553.975 249.331C552.803 249.331 551.694 249.394 551.694 249.842C551.694 250.081 551.845 250.112 552.116 250.112C552.142 250.112 552.204 250.112 552.261 250.112C552.595 250.112 554.751 249.722 557.09 249.722C559.819 249.722 562.1 250.144 562.636 250.144C563.178 250.144 563.506 249.961 563.506 249.659C563.506 249.362 560.959 249.211 559.61 249.18C559.1 247.862 558.892 243.633 558.892 239.826C558.892 239.586 558.892 239.321 558.892 239.081C558.918 235.149 559.308 229.425 559.699 229.217C560.329 229.217 562.459 229.123 563.027 229.097C563.418 229.065 563.626 228.914 563.626 228.644C563.626 228.378 563.418 228.284 562.996 228.284C562.845 228.284 560.329 228.737 557.209 228.737C554.334 228.737 552.413 228.315 551.663 228.315C551.095 228.315 551.032 228.435 551.032 228.644C551.032 228.706 551.032 228.795 551.032 228.883C551.032 229.274 553.371 229.123 554.871 229.274C555.35 229.784 555.444 232.904 555.444 235.029C555.444 235.842 555.413 236.498 555.413 236.8C554.991 236.862 554.215 236.862 553.402 236.862C552.626 236.862 551.845 236.862 551.277 236.862C551.032 236.862 550.855 236.862 550.735 236.862C550.886 236.743 551.246 236.529 551.246 236.081C551.246 235.633 550.673 235.3 550.017 235.3C549.355 235.3 548.907 235.69 548.907 236.112C548.907 236.529 549.204 236.68 549.475 236.831C549.475 236.831 549.116 236.831 548.605 236.831C547.345 236.831 544.98 236.831 544.288 236.711C544.288 233.081 544.501 230.232 544.741 229.487C545.038 229.003 549.084 229.217 549.084 228.555C549.084 228.315 548.965 228.315 548.485 228.315C548.006 228.315 545.069 228.706 541.892 228.706C538.715 228.706 537.006 228.284 536.673 228.284C536.345 228.284 536.194 228.347 536.194 228.675C536.194 229.243 537.215 229.362 540.329 229.425C540.631 230.024 540.933 233.592 540.933 238.211C540.933 244.175 540.663 247.503 540.152 249.092C536.256 249.154 536.136 249.571 536.136 249.81C536.136 249.842 536.136 249.873 536.136 249.873C536.136 250.112 536.225 250.112 536.402 250.112C536.584 250.112 537.511 249.722 541.86 249.722C546.116 249.722 548.454 250.144 548.788 250.144C548.845 250.144 548.907 250.144 548.939 250.144C549.355 250.144 549.475 250.112 549.475 249.69C549.475 249.394 546.267 249.274 544.647 248.972C544.35 248.164 544.319 240.19 544.319 240.19C544.319 240.19 547.465 240.128 550.433 240.128C552.652 240.128 554.751 240.159 555.324 240.279ZM555.413 238.357C555.11 238.477 550.824 238.571 547.647 238.571C545.939 238.571 544.558 238.539 544.288 238.477V237.789C544.558 237.701 549.147 237.701 552.355 237.701C553.944 237.701 555.204 237.701 555.413 237.701V238.357Z" fill="#4B87F0"/>
<path id="Vector_2" d="M576.844 250.68C583.5 250.68 588.208 243.784 588.208 238.331C588.208 232.211 582.75 227.805 576.604 227.805C569.563 227.805 563.984 233.623 563.984 239.977C563.984 246.722 570.641 250.68 576.844 250.68ZM577.026 249.571C576.995 249.571 576.995 249.571 576.964 249.571C573.156 249.571 568.542 246.243 568.542 238.836C568.542 233.774 570.37 228.914 575.917 228.914C580.266 228.914 583.891 233.263 583.891 240.19C583.891 244.987 581.432 249.571 577.026 249.571Z" fill="#4B87F0"/>
<path id="Vector_3" d="M619.448 249.722C622.474 247.862 626.432 243.998 626.432 238.3C626.432 232.602 622.177 228.133 616.958 228.133C611.739 228.133 609.911 229.904 609.281 230.326C607.245 229.003 605.416 228.404 603.349 228.404C592.193 228.404 590.755 238.628 590.755 240.935C590.755 245.347 592.552 246.154 595.25 246.456C596.151 248.581 597.411 249.784 597.802 250.112C596 250.711 595.401 251.31 595.401 252.211C595.401 252.842 595.729 253.17 595.854 253.17C595.88 253.17 595.911 253.138 595.911 253.107C595.911 253.081 595.911 253.081 595.911 253.081C595.911 253.019 595.911 252.961 595.911 252.899C595.911 252.868 595.911 252.842 595.911 252.81C595.911 252.571 595.943 252.388 596.271 251.972C597.291 250.711 601.338 249.753 609.552 249.753C619.838 249.753 622.083 251.399 622.594 251.399C622.682 251.399 622.802 251.373 622.802 251.279C622.802 251.222 622.682 250.831 622.354 250.623C621.515 250.144 619.448 249.722 619.448 249.722ZM606.135 249.123C604.307 249.331 599.359 249.81 598.849 249.873C598.281 249.873 594.984 246.664 594.984 240.607C594.984 232.904 598.458 229.362 602.239 229.362C603.974 229.362 605.448 230.472 606.255 232.185C606.797 233.295 606.797 237.31 606.854 239.201C606.614 238.868 606.344 238.451 605.745 238.451C605.146 238.451 604.724 239.17 604.724 239.769C604.724 240.368 605.114 241.295 605.807 241.295C606.495 241.295 606.614 240.847 606.797 240.487C606.823 240.727 606.854 241.149 606.854 241.685C606.854 244.118 606.463 248.795 606.135 249.123ZM618.005 249.482C616.51 249.331 611.859 249.243 611.021 248.821C610.573 248.43 610.245 246.065 610.245 240.55C610.453 240.815 610.75 241.086 611.203 241.086C611.651 241.086 612.281 240.727 612.281 239.769C612.281 238.81 611.802 238.477 611.354 238.477C610.901 238.477 610.541 238.93 610.271 239.138C610.271 238.118 610.213 237.128 610.213 236.201C610.213 235.571 610.245 234.972 610.333 234.461C610.63 232.784 611.979 229.097 615.458 229.097C619.719 229.097 621.755 235.06 621.755 239.826C621.755 243.008 620.286 247.831 618.005 249.482Z" fill="#4B87F0"/>
<path id="Vector_4" d="M644.834 250.503C644.897 250.383 644.928 250.263 644.928 250.081C644.928 249.69 644.808 249.06 644.808 247.951C644.808 246.602 644.834 245.076 644.834 244.534C644.714 244.446 644.626 244.446 644.537 244.446C644.386 244.446 644.298 244.534 644.298 244.534C644.235 245.013 643.996 246.576 643.579 246.935C642.35 247.982 639.261 248.612 636.381 248.612C635.871 248.612 635.334 248.612 634.824 248.555C634.615 248.045 634.522 244.654 634.522 241.748C634.522 240.878 634.522 240.039 634.553 239.347C635.152 239.258 635.845 239.201 636.444 239.201C636.74 239.201 637.042 239.227 637.251 239.258C637.011 239.378 636.803 239.737 636.803 239.977C636.803 240.487 637.251 240.758 637.673 240.758C638.089 240.758 638.662 240.55 638.662 240.008C638.662 239.706 638.511 239.44 638.329 239.289C638.449 239.289 638.569 239.289 638.688 239.289C640.282 239.289 642.438 239.946 643.579 240.909C643.605 241.055 643.605 241.326 643.605 241.628C643.605 241.868 643.605 242.107 643.605 242.315C643.605 242.524 643.605 242.675 643.636 242.769C643.667 242.795 643.756 242.826 643.876 242.826C644.027 242.826 644.209 242.769 644.235 242.586C644.235 239.649 644.449 237.279 644.777 236.592C644.777 236.44 644.657 236.409 644.537 236.409C644.475 236.409 644.417 236.409 644.417 236.409C643.819 237.279 640.188 238.237 638.391 238.237C638.6 238.029 638.688 237.94 638.688 237.638C638.688 237.222 638.36 236.862 637.792 236.862C637.074 236.862 636.834 237.19 636.834 237.55C636.834 237.909 636.891 238.118 637.162 238.3C637.162 238.3 635.121 238.237 634.553 238.092C634.553 236.498 634.792 230.743 635.001 229.696C638.48 229.696 640.308 229.873 641.751 230.534C643.126 231.164 643.996 232.602 644.115 234.19C644.178 234.222 644.266 234.253 644.355 234.253C644.537 234.253 644.714 234.159 644.777 234.013C644.714 233.56 644.688 233.081 644.688 232.545C644.688 230.982 644.959 229.154 645.735 227.836C646.694 226.185 648.345 225.826 648.345 225.378C648.345 225.227 648.105 224.956 647.683 224.956C647.266 224.956 645.917 226.336 644.959 228.227C642.048 228.498 635.782 228.706 632.782 228.706C629.787 228.706 628.917 228.315 628.438 228.315C627.959 228.315 627.657 228.467 627.657 228.763C627.657 229.034 628.167 229.185 628.647 229.185C628.798 229.185 629.006 229.185 629.214 229.185C629.756 229.185 630.386 229.217 630.808 229.394C631.074 230.263 631.464 233.534 631.464 239.17C631.464 245.586 631.016 248.555 630.417 249.211C628.256 249.362 623.579 251.159 623.22 252.243C623.22 252.269 623.22 252.269 623.22 252.3C623.22 252.42 623.428 252.482 623.579 252.482C624.058 252.482 626.97 249.784 632.334 249.784C638.511 249.784 640.011 249.993 644.834 250.503Z" fill="#4B87F0"/>
</g>
<g id="Engineering">
<path id="Vector_5" d="M416.887 808.505C416.95 808.385 416.981 808.266 416.981 808.083C416.981 807.693 416.861 807.062 416.861 805.953C416.861 804.604 416.887 803.078 416.887 802.536C416.768 802.448 416.679 802.448 416.591 802.448C416.44 802.448 416.351 802.536 416.351 802.536C416.289 803.016 416.049 804.578 415.632 804.937C414.403 805.984 411.315 806.615 408.434 806.615C407.924 806.615 407.387 806.615 406.877 806.557C406.669 806.047 406.575 802.656 406.575 799.75C406.575 798.88 406.575 798.042 406.606 797.349C407.205 797.26 407.898 797.203 408.497 797.203C408.794 797.203 409.096 797.229 409.304 797.26C409.065 797.38 408.856 797.74 408.856 797.979C408.856 798.49 409.304 798.76 409.726 798.76C410.143 798.76 410.716 798.552 410.716 798.01C410.716 797.708 410.565 797.443 410.382 797.292C410.502 797.292 410.622 797.292 410.742 797.292C412.335 797.292 414.492 797.948 415.632 798.911C415.658 799.057 415.658 799.328 415.658 799.63C415.658 799.87 415.658 800.109 415.658 800.318C415.658 800.526 415.658 800.677 415.69 800.771C415.721 800.797 415.809 800.828 415.929 800.828C416.08 800.828 416.262 800.771 416.289 800.588C416.289 797.651 416.502 795.281 416.83 794.594C416.83 794.443 416.71 794.411 416.591 794.411C416.528 794.411 416.471 794.411 416.471 794.411C415.872 795.281 412.242 796.24 410.445 796.24C410.653 796.031 410.742 795.943 410.742 795.641C410.742 795.224 410.414 794.865 409.846 794.865C409.127 794.865 408.887 795.193 408.887 795.552C408.887 795.911 408.945 796.12 409.216 796.302C409.216 796.302 407.174 796.24 406.606 796.094C406.606 794.5 406.846 788.745 407.054 787.698C410.533 787.698 412.361 787.875 413.804 788.536C415.179 789.167 416.049 790.604 416.169 792.193C416.231 792.224 416.32 792.255 416.408 792.255C416.591 792.255 416.768 792.161 416.83 792.016C416.768 791.562 416.742 791.083 416.742 790.547C416.742 788.984 417.012 787.156 417.789 785.838C418.747 784.187 420.398 783.828 420.398 783.38C420.398 783.229 420.158 782.958 419.736 782.958C419.32 782.958 417.971 784.338 417.012 786.229C414.101 786.5 407.835 786.708 404.835 786.708C401.841 786.708 400.971 786.318 400.492 786.318C400.012 786.318 399.71 786.469 399.71 786.766C399.71 787.036 400.221 787.187 400.7 787.187C400.851 787.187 401.059 787.187 401.268 787.187C401.809 787.187 402.44 787.219 402.861 787.396C403.127 788.266 403.518 791.536 403.518 797.172C403.518 803.588 403.07 806.557 402.471 807.213C400.309 807.365 395.632 809.161 395.273 810.245C395.273 810.271 395.273 810.271 395.273 810.302C395.273 810.422 395.481 810.484 395.632 810.484C396.111 810.484 399.023 807.786 404.387 807.786C410.565 807.786 412.065 807.995 416.887 808.505Z" fill="#4B87F0"/>
<path id="Vector_6" d="M445.098 809.823C445.098 809.792 445.223 809.76 445.249 809.703C445.28 809.401 445.28 808.625 445.28 807.635C445.28 805.448 445.249 802.146 445.249 800.109C445.249 799.151 445.249 798.49 445.28 798.281C445.519 798.161 446.837 798.01 446.837 797.828C446.837 797.651 445.91 797.588 445.342 797.443C445.608 797.26 446.061 797.083 446.061 796.599C446.061 796.12 445.608 795.911 445.462 795.729C445.608 795.641 446.868 795.49 446.868 795.224C446.868 795.073 446.087 795.042 445.551 794.922C445.551 794.083 446.15 789.016 446.931 787.49C447.53 787.307 449.389 787.125 449.389 786.588C449.389 786.38 449.269 786.318 449.118 786.318C448.936 786.318 448.426 786.797 444.561 786.797C438.894 786.797 438.504 786.318 438.176 786.318C437.905 786.318 437.874 786.526 437.874 786.677C437.874 786.708 437.874 786.74 437.874 786.74C437.874 787.609 441.894 787.427 442.462 787.547C442.79 787.875 443.842 791.922 443.842 794.953C443.332 794.953 442.79 795.104 442.79 795.281C442.79 795.37 443.54 795.49 443.931 795.672C443.54 795.911 443.243 796.031 443.243 796.51C443.243 796.99 443.629 797.141 443.931 797.5C443.749 797.588 442.493 797.588 442.493 797.802C442.493 797.979 443.54 798.099 443.868 798.099C443.988 798.729 444.019 800.557 444.019 801.937C444.019 802.776 443.988 803.469 443.988 803.588C438.743 799.088 424.415 785 424.415 785C424.473 786.677 424.473 787.036 424.504 789.318C424.504 789.615 424.504 789.917 424.504 790.245C424.504 792.766 424.415 795.432 424.353 795.792C423.874 795.911 422.853 796.12 422.853 796.213C422.853 796.391 423.723 796.422 424.264 796.573C424.082 796.75 423.571 797.083 423.571 797.588C423.571 798.099 424.082 798.37 424.233 798.641C423.816 798.698 422.946 798.818 422.946 799.031C422.946 799.24 423.905 799.177 424.384 799.271C424.233 801.786 423.514 806.854 423.155 807.125C421.144 807.422 418.118 808.802 418.118 809.073C418.118 809.344 418.207 809.375 418.415 809.375C420.066 808.354 422.915 807.724 424.504 807.724C427.233 807.724 430.92 808.146 431.217 808.146C431.519 808.146 431.577 808.146 431.577 807.875C431.577 807.333 428.519 807.453 427.233 807.213C426.9 806.583 425.973 802.865 425.764 799.297C426.061 799.208 427.384 799.208 427.384 798.911C427.384 798.76 425.941 798.76 425.702 798.672C425.941 798.578 426.66 798.13 426.66 797.651C426.66 797.172 426.181 796.838 425.764 796.573C426.124 796.453 426.993 796.182 426.993 796.12C426.993 795.943 426.243 795.854 425.67 795.854C425.644 794.953 425.613 793.182 425.551 791.682C427.019 793.005 431.79 797.771 436.405 802C440.545 805.807 443.723 808.385 445.098 809.823Z" fill="#4B87F0"/>
<path id="Vector_7" d="M469.2 794.594C469.231 794.682 469.319 794.713 469.413 794.713C469.564 794.713 469.741 794.625 469.741 794.625C469.804 793.422 470.012 790.963 470.819 788.838C471.871 786.047 473.491 785 473.491 784.849C473.491 784.698 473.46 784.578 473.069 784.578C472.528 784.578 471.09 786.677 470.611 787.458C468.512 786.828 466.502 785.838 462.637 785.838C455.918 785.838 449.986 791.594 449.986 797.651C449.986 804.818 456.668 808.682 462.694 808.682C467.163 808.682 471.96 805.385 471.96 801.88C471.96 798.88 468.121 796.573 463.897 796.573C459.22 796.573 457.387 800.286 457.147 801.036C457.809 801.01 459.819 800.948 460.986 800.948C461.2 800.948 461.345 800.948 461.496 800.948C461.465 800.771 461.439 800.588 461.439 800.38C461.439 798.937 462.429 797.38 464.283 797.38C465.996 797.38 467.825 799.781 467.825 802.745C467.825 806.073 465.033 807.635 462.908 807.635C458.741 807.635 454.512 803.677 454.512 796.422C454.512 791.474 457.418 786.885 462.366 786.885C465.606 786.885 468.361 789.885 469.2 791.417C469.262 791.594 469.293 792.193 469.293 792.823C469.293 793.542 469.262 794.292 469.2 794.594Z" fill="#4B87F0"/>
<path id="Vector_8" d="M477.413 806.766C476.574 807.396 473.277 806.797 473.277 807.875C473.277 808.083 473.46 808.146 473.725 808.146C473.996 808.146 473.095 807.875 478.944 807.875C484.402 807.875 485.21 808.266 485.538 808.266C485.871 808.266 486.111 808.146 486.111 807.812C486.111 807.422 485.538 807.213 485.09 807.213C484.371 807.213 483.772 807.245 483.173 807.245C482.689 807.245 482.21 807.213 481.704 807.182C481.402 807.182 481.314 802.417 481.314 799.448C481.314 798.641 481.314 797.948 481.34 797.562C481.553 797.802 481.824 798.099 482.21 798.099C482.6 798.099 483.022 797.651 483.022 796.932C483.022 796.213 482.6 795.729 482.152 795.729C481.824 795.729 481.585 796 481.34 796.24C481.522 794.953 481.642 787.667 482.21 787.516C482.631 787.458 485.808 787.635 485.808 786.677C485.808 786.406 485.6 786.318 485.241 786.318C484.881 786.318 483.892 786.797 480.501 786.797C477.324 786.797 474.267 786.318 474.058 786.318C473.845 786.318 473.46 786.38 473.46 786.766C473.46 787.219 474.298 787.307 477.715 787.49C478.194 787.818 478.225 792.734 478.225 795.552C478.225 795.88 478.225 796.182 478.225 796.422C478.043 796.094 477.803 795.943 477.475 795.943C477.147 795.943 476.574 796.094 476.574 797.109C476.574 798.13 477.293 798.25 477.564 798.25C477.835 798.25 478.017 798.099 478.225 797.948C478.225 798.161 478.225 798.37 478.225 798.578C478.225 803.526 477.866 806.615 477.413 806.766Z" fill="#4B87F0"/>
<path id="Vector_9" d="M511.139 809.823C511.139 809.792 511.264 809.76 511.29 809.703C511.322 809.401 511.322 808.625 511.322 807.635C511.322 805.448 511.29 802.146 511.29 800.109C511.29 799.151 511.29 798.49 511.322 798.281C511.561 798.161 512.879 798.01 512.879 797.828C512.879 797.651 511.952 797.588 511.384 797.443C511.65 797.26 512.103 797.083 512.103 796.599C512.103 796.12 511.65 795.911 511.504 795.729C511.65 795.641 512.91 795.49 512.91 795.224C512.91 795.073 512.129 795.042 511.593 794.922C511.593 794.083 512.191 789.016 512.973 787.49C513.572 787.307 515.431 787.125 515.431 786.588C515.431 786.38 515.311 786.318 515.16 786.318C514.978 786.318 514.468 786.797 510.603 786.797C504.936 786.797 504.546 786.318 504.218 786.318C503.947 786.318 503.915 786.526 503.915 786.677C503.915 786.708 503.915 786.74 503.915 786.74C503.915 787.609 507.936 787.427 508.504 787.547C508.832 787.875 509.884 791.922 509.884 794.953C509.374 794.953 508.832 795.104 508.832 795.281C508.832 795.37 509.582 795.49 509.973 795.672C509.582 795.911 509.285 796.031 509.285 796.51C509.285 796.99 509.671 797.141 509.973 797.5C509.79 797.588 508.535 797.588 508.535 797.802C508.535 797.979 509.582 798.099 509.91 798.099C510.03 798.729 510.061 800.557 510.061 801.937C510.061 802.776 510.03 803.469 510.03 803.588C504.785 799.088 490.457 785 490.457 785C490.514 786.677 490.514 787.036 490.546 789.318C490.546 789.615 490.546 789.917 490.546 790.245C490.546 792.766 490.457 795.432 490.395 795.792C489.915 795.911 488.895 796.12 488.895 796.213C488.895 796.391 489.764 796.422 490.306 796.573C490.124 796.75 489.613 797.083 489.613 797.588C489.613 798.099 490.124 798.37 490.275 798.641C489.858 798.698 488.988 798.818 488.988 799.031C488.988 799.24 489.947 799.177 490.426 799.271C490.275 801.786 489.556 806.854 489.197 807.125C487.186 807.422 484.16 808.802 484.16 809.073C484.16 809.344 484.249 809.375 484.457 809.375C486.108 808.354 488.957 807.724 490.546 807.724C493.275 807.724 496.962 808.146 497.259 808.146C497.561 808.146 497.619 808.146 497.619 807.875C497.619 807.333 494.561 807.453 493.275 807.213C492.941 806.583 492.014 802.865 491.806 799.297C492.103 799.208 493.426 799.208 493.426 798.911C493.426 798.76 491.983 798.76 491.744 798.672C491.983 798.578 492.702 798.13 492.702 797.651C492.702 797.172 492.223 796.838 491.806 796.573C492.165 796.453 493.035 796.182 493.035 796.12C493.035 795.943 492.285 795.854 491.712 795.854C491.686 794.953 491.655 793.182 491.593 791.682C493.061 793.005 497.832 797.771 502.447 802C506.587 805.807 509.764 808.385 511.139 809.823Z" fill="#4B87F0"/>
<path id="Vector_10" d="M533.442 808.505C533.505 808.385 533.536 808.266 533.536 808.083C533.536 807.693 533.416 807.062 533.416 805.953C533.416 804.604 533.442 803.078 533.442 802.536C533.323 802.448 533.234 802.448 533.146 802.448C532.995 802.448 532.906 802.536 532.906 802.536C532.844 803.016 532.604 804.578 532.187 804.937C530.958 805.984 527.87 806.615 524.989 806.615C524.479 806.615 523.942 806.615 523.432 806.557C523.224 806.047 523.13 802.656 523.13 799.75C523.13 798.88 523.13 798.042 523.161 797.349C523.76 797.26 524.453 797.203 525.052 797.203C525.349 797.203 525.651 797.229 525.859 797.26C525.62 797.38 525.411 797.74 525.411 797.979C525.411 798.49 525.859 798.76 526.281 798.76C526.698 798.76 527.271 798.552 527.271 798.01C527.271 797.708 527.12 797.443 526.937 797.292C527.057 797.292 527.177 797.292 527.297 797.292C528.89 797.292 531.047 797.948 532.187 798.911C532.213 799.057 532.213 799.328 532.213 799.63C532.213 799.87 532.213 800.109 532.213 800.318C532.213 800.526 532.213 800.677 532.245 800.771C532.276 800.797 532.364 800.828 532.484 800.828C532.635 800.828 532.817 800.771 532.844 800.588C532.844 797.651 533.057 795.281 533.385 794.594C533.385 794.443 533.265 794.411 533.146 794.411C533.083 794.411 533.026 794.411 533.026 794.411C532.427 795.281 528.797 796.24 527 796.24C527.208 796.031 527.297 795.943 527.297 795.641C527.297 795.224 526.969 794.865 526.401 794.865C525.682 794.865 525.442 795.193 525.442 795.552C525.442 795.911 525.5 796.12 525.771 796.302C525.771 796.302 523.729 796.24 523.161 796.094C523.161 794.5 523.401 788.745 523.609 787.698C527.088 787.698 528.916 787.875 530.359 788.536C531.734 789.167 532.604 790.604 532.724 792.193C532.786 792.224 532.875 792.255 532.963 792.255C533.146 792.255 533.323 792.161 533.385 792.016C533.323 791.562 533.297 791.083 533.297 790.547C533.297 788.984 533.567 787.156 534.344 785.838C535.302 784.187 536.953 783.828 536.953 783.38C536.953 783.229 536.713 782.958 536.291 782.958C535.875 782.958 534.526 784.338 533.567 786.229C530.656 786.5 524.39 786.708 521.39 786.708C518.396 786.708 517.526 786.318 517.047 786.318C516.567 786.318 516.265 786.469 516.265 786.766C516.265 787.036 516.776 787.187 517.255 787.187C517.406 787.187 517.614 787.187 517.823 787.187C518.364 787.187 518.995 787.219 519.416 787.396C519.682 788.266 520.073 791.536 520.073 797.172C520.073 803.588 519.625 806.557 519.026 807.213C516.864 807.365 512.187 809.161 511.828 810.245C511.828 810.271 511.828 810.271 511.828 810.302C511.828 810.422 512.036 810.484 512.187 810.484C512.666 810.484 515.578 807.786 520.942 807.786C527.12 807.786 528.62 807.995 533.442 808.505Z" fill="#4B87F0"/>
<path id="Vector_11" d="M554.517 808.505C554.58 808.385 554.611 808.266 554.611 808.083C554.611 807.693 554.491 807.062 554.491 805.953C554.491 804.604 554.517 803.078 554.517 802.536C554.397 802.448 554.309 802.448 554.22 802.448C554.069 802.448 553.981 802.536 553.981 802.536C553.918 803.016 553.679 804.578 553.262 804.937C552.033 805.984 548.944 806.615 546.064 806.615C545.554 806.615 545.017 806.615 544.507 806.557C544.298 806.047 544.205 802.656 544.205 799.75C544.205 798.88 544.205 798.042 544.236 797.349C544.835 797.26 545.528 797.203 546.127 797.203C546.423 797.203 546.726 797.229 546.934 797.26C546.694 797.38 546.486 797.74 546.486 797.979C546.486 798.49 546.934 798.76 547.356 798.76C547.772 798.76 548.345 798.552 548.345 798.01C548.345 797.708 548.194 797.443 548.012 797.292C548.132 797.292 548.252 797.292 548.371 797.292C549.965 797.292 552.121 797.948 553.262 798.911C553.288 799.057 553.288 799.328 553.288 799.63C553.288 799.87 553.288 800.109 553.288 800.318C553.288 800.526 553.288 800.677 553.319 800.771C553.351 800.797 553.439 800.828 553.559 800.828C553.71 800.828 553.892 800.771 553.918 800.588C553.918 797.651 554.132 795.281 554.46 794.594C554.46 794.443 554.34 794.411 554.22 794.411C554.158 794.411 554.101 794.411 554.101 794.411C553.502 795.281 549.871 796.24 548.074 796.24C548.283 796.031 548.371 795.943 548.371 795.641C548.371 795.224 548.043 794.865 547.476 794.865C546.757 794.865 546.517 795.193 546.517 795.552C546.517 795.911 546.574 796.12 546.845 796.302C546.845 796.302 544.804 796.24 544.236 796.094C544.236 794.5 544.476 788.745 544.684 787.698C548.163 787.698 549.991 787.875 551.434 788.536C552.809 789.167 553.679 790.604 553.798 792.193C553.861 792.224 553.949 792.255 554.038 792.255C554.22 792.255 554.397 792.161 554.46 792.016C554.397 791.562 554.371 791.083 554.371 790.547C554.371 788.984 554.642 787.156 555.418 785.838C556.377 784.187 558.028 783.828 558.028 783.38C558.028 783.229 557.788 782.958 557.366 782.958C556.949 782.958 555.601 784.338 554.642 786.229C551.731 786.5 545.465 786.708 542.465 786.708C539.47 786.708 538.601 786.318 538.121 786.318C537.642 786.318 537.34 786.469 537.34 786.766C537.34 787.036 537.851 787.187 538.33 787.187C538.481 787.187 538.689 787.187 538.897 787.187C539.439 787.187 540.069 787.219 540.491 787.396C540.757 788.266 541.147 791.536 541.147 797.172C541.147 803.588 540.699 806.557 540.101 807.213C537.939 807.365 533.262 809.161 532.903 810.245C532.903 810.271 532.903 810.271 532.903 810.302C532.903 810.422 533.111 810.484 533.262 810.484C533.741 810.484 536.653 807.786 542.017 807.786C548.194 807.786 549.694 807.995 554.517 808.505Z" fill="#4B87F0"/>
<path id="Vector_12" d="M592.411 810.031C592.411 809.76 592.323 809.401 592.115 809.401C592.026 809.401 591.932 809.464 591.813 809.583C591.302 811.083 590.016 811.323 589.177 811.323C588.786 811.323 588.484 811.26 588.484 811.26C588.396 810.781 588.068 810.422 587.526 810.422C587.495 810.422 587.469 810.422 587.469 810.422C586.984 810.422 586.865 810.724 586.536 810.932C584.406 810.693 581.443 807.812 579.943 805.297C580.422 804.547 580.781 804.427 580.781 803.109C580.781 800.167 578.203 798.01 572.958 798.01C572.536 798.01 572.089 798.01 571.635 798.042C576.583 796 578.531 794.26 578.531 790.906V790.875C578.531 786.797 573.677 784.698 570.948 784.698C570.917 784.698 570.885 784.698 570.859 784.698C568.786 784.698 565.911 785.687 564.172 787.036C564.083 787.068 563.964 787.068 563.813 787.068C562.641 787.068 559.677 786.318 559.104 786.318C558.776 786.318 558.505 786.286 558.266 786.286C557.875 786.286 557.635 786.349 557.635 786.708C557.635 787.219 560.365 786.646 561.443 788.026C561.651 789.286 562.104 792.344 562.104 796.781C562.104 801.187 561.953 803.047 561.266 807.005C560.182 807.062 558.865 807.182 558.203 807.302C557.516 807.422 557.458 807.755 557.458 807.875C557.458 808.026 557.547 808.146 557.755 808.146C557.964 808.146 559.135 807.724 563.542 807.724C567.141 807.724 569.656 808.146 570.229 808.146C570.589 808.146 570.766 808.115 570.766 807.844C570.766 807.156 567.828 807.276 565.849 806.974C565.339 805.776 565.25 803.229 565.25 801.187C565.25 799.568 565.313 798.281 565.313 798.281C565.313 798.281 569.089 798.49 571.156 799.51C578.354 803.047 581.802 810.63 586.656 811.562C586.745 812.042 586.896 812.37 587.469 812.37C588.036 812.37 588.156 812.161 588.396 811.922C588.516 811.891 588.635 811.891 588.724 811.891C588.906 811.891 589.057 811.922 589.234 811.922C589.417 811.922 589.625 811.891 589.953 811.833C590.885 811.62 591.932 810.99 592.411 810.031ZM568.641 797.74C566.839 797.708 565.76 797.469 565.25 797.229C565.25 794.891 565.281 789.526 565.943 788.208C566.661 786.766 568.188 785.99 569.958 785.99C569.99 785.99 570.016 785.99 570.047 785.99C572.839 786.047 574.245 789.286 574.245 792.104C574.245 796.302 571.995 797.74 568.641 797.74Z" fill="#4B87F0"/>
<path id="Vector_13" d="M586.323 806.766C585.485 807.396 582.188 806.797 582.188 807.875C582.188 808.083 582.37 808.146 582.636 808.146C582.907 808.146 582.006 807.875 587.855 807.875C593.313 807.875 594.12 808.266 594.448 808.266C594.782 808.266 595.021 808.146 595.021 807.812C595.021 807.422 594.448 807.213 594 807.213C593.282 807.213 592.683 807.245 592.084 807.245C591.599 807.245 591.12 807.213 590.615 807.182C590.313 807.182 590.224 802.417 590.224 799.448C590.224 798.641 590.224 797.948 590.25 797.562C590.464 797.802 590.735 798.099 591.12 798.099C591.511 798.099 591.933 797.651 591.933 796.932C591.933 796.213 591.511 795.729 591.063 795.729C590.735 795.729 590.495 796 590.25 796.24C590.433 794.953 590.552 787.667 591.12 787.516C591.542 787.458 594.719 787.635 594.719 786.677C594.719 786.406 594.511 786.318 594.151 786.318C593.792 786.318 592.802 786.797 589.412 786.797C586.235 786.797 583.177 786.318 582.969 786.318C582.756 786.318 582.37 786.38 582.37 786.766C582.37 787.219 583.209 787.307 586.625 787.49C587.105 787.818 587.136 792.734 587.136 795.552C587.136 795.88 587.136 796.182 587.136 796.422C586.953 796.094 586.714 795.943 586.386 795.943C586.058 795.943 585.485 796.094 585.485 797.109C585.485 798.13 586.203 798.25 586.474 798.25C586.745 798.25 586.927 798.099 587.136 797.948C587.136 798.161 587.136 798.37 587.136 798.578C587.136 803.526 586.776 806.615 586.323 806.766Z" fill="#4B87F0"/>
<path id="Vector_14" d="M620.05 809.823C620.05 809.792 620.175 809.76 620.201 809.703C620.232 809.401 620.232 808.625 620.232 807.635C620.232 805.448 620.201 802.146 620.201 800.109C620.201 799.151 620.201 798.49 620.232 798.281C620.472 798.161 621.79 798.01 621.79 797.828C621.79 797.651 620.862 797.588 620.295 797.443C620.56 797.26 621.014 797.083 621.014 796.599C621.014 796.12 620.56 795.911 620.415 795.729C620.56 795.641 621.821 795.49 621.821 795.224C621.821 795.073 621.04 795.042 620.503 794.922C620.503 794.083 621.102 789.016 621.883 787.49C622.482 787.307 624.342 787.125 624.342 786.588C624.342 786.38 624.222 786.318 624.071 786.318C623.889 786.318 623.378 786.797 619.514 786.797C613.847 786.797 613.456 786.318 613.128 786.318C612.857 786.318 612.826 786.526 612.826 786.677C612.826 786.708 612.826 786.74 612.826 786.74C612.826 787.609 616.847 787.427 617.415 787.547C617.743 787.875 618.795 791.922 618.795 794.953C618.284 794.953 617.743 795.104 617.743 795.281C617.743 795.37 618.493 795.49 618.883 795.672C618.493 795.911 618.196 796.031 618.196 796.51C618.196 796.99 618.581 797.141 618.883 797.5C618.701 797.588 617.446 797.588 617.446 797.802C617.446 797.979 618.493 798.099 618.821 798.099C618.941 798.729 618.972 800.557 618.972 801.937C618.972 802.776 618.941 803.469 618.941 803.588C613.696 799.088 599.368 785 599.368 785C599.425 786.677 599.425 787.036 599.456 789.318C599.456 789.615 599.456 789.917 599.456 790.245C599.456 792.766 599.368 795.432 599.305 795.792C598.826 795.911 597.805 796.12 597.805 796.213C597.805 796.391 598.675 796.422 599.217 796.573C599.034 796.75 598.524 797.083 598.524 797.588C598.524 798.099 599.034 798.37 599.185 798.641C598.769 798.698 597.899 798.818 597.899 799.031C597.899 799.24 598.857 799.177 599.336 799.271C599.185 801.786 598.467 806.854 598.107 807.125C596.097 807.422 593.071 808.802 593.071 809.073C593.071 809.344 593.159 809.375 593.368 809.375C595.019 808.354 597.868 807.724 599.456 807.724C602.185 807.724 605.873 808.146 606.17 808.146C606.472 808.146 606.529 808.146 606.529 807.875C606.529 807.333 603.472 807.453 602.185 807.213C601.852 806.583 600.925 802.865 600.717 799.297C601.014 799.208 602.336 799.208 602.336 798.911C602.336 798.76 600.894 798.76 600.654 798.672C600.894 798.578 601.612 798.13 601.612 797.651C601.612 797.172 601.133 796.838 600.717 796.573C601.076 796.453 601.946 796.182 601.946 796.12C601.946 795.943 601.196 795.854 600.623 795.854C600.597 794.953 600.566 793.182 600.503 791.682C601.972 793.005 606.743 797.771 611.357 802C615.498 805.807 618.675 808.385 620.05 809.823Z" fill="#4B87F0"/>
<path id="Vector_15" d="M644.152 794.594C644.183 794.682 644.272 794.713 644.366 794.713C644.517 794.713 644.694 794.625 644.694 794.625C644.756 793.422 644.965 790.963 645.772 788.838C646.824 786.047 648.444 785 648.444 784.849C648.444 784.698 648.412 784.578 648.022 784.578C647.48 784.578 646.043 786.677 645.563 787.458C643.465 786.828 641.454 785.838 637.59 785.838C630.871 785.838 624.938 791.594 624.938 797.651C624.938 804.818 631.621 808.682 637.647 808.682C642.116 808.682 646.912 805.385 646.912 801.88C646.912 798.88 643.074 796.573 638.85 796.573C634.173 796.573 632.34 800.286 632.1 801.036C632.761 801.01 634.772 800.948 635.938 800.948C636.152 800.948 636.298 800.948 636.449 800.948C636.418 800.771 636.392 800.588 636.392 800.38C636.392 798.937 637.381 797.38 639.235 797.38C640.949 797.38 642.777 799.781 642.777 802.745C642.777 806.073 639.985 807.635 637.86 807.635C633.694 807.635 629.465 803.677 629.465 796.422C629.465 791.474 632.371 786.885 637.319 786.885C640.558 786.885 643.313 789.885 644.152 791.417C644.215 791.594 644.246 792.193 644.246 792.823C644.246 793.542 644.215 794.292 644.152 794.594Z" fill="#4B87F0"/>
</g>
<g id="Education">
<path id="Vector_16" d="M1280.33 250.503C1280.39 250.383 1280.42 250.263 1280.42 250.081C1280.42 249.69 1280.3 249.06 1280.3 247.951C1280.3 246.602 1280.33 245.076 1280.33 244.534C1280.21 244.446 1280.12 244.446 1280.03 244.446C1279.88 244.446 1279.79 244.534 1279.79 244.534C1279.73 245.013 1279.49 246.576 1279.07 246.935C1277.84 247.982 1274.76 248.612 1271.88 248.612C1271.37 248.612 1270.83 248.612 1270.32 248.555C1270.11 248.045 1270.02 244.654 1270.02 241.748C1270.02 240.878 1270.02 240.039 1270.05 239.347C1270.65 239.258 1271.34 239.201 1271.94 239.201C1272.23 239.201 1272.54 239.227 1272.75 239.258C1272.51 239.378 1272.3 239.737 1272.3 239.977C1272.3 240.487 1272.75 240.758 1273.17 240.758C1273.58 240.758 1274.16 240.55 1274.16 240.008C1274.16 239.706 1274.01 239.44 1273.82 239.289C1273.94 239.289 1274.06 239.289 1274.18 239.289C1275.78 239.289 1277.93 239.946 1279.07 240.909C1279.1 241.055 1279.1 241.326 1279.1 241.628C1279.1 241.868 1279.1 242.107 1279.1 242.315C1279.1 242.524 1279.1 242.675 1279.13 242.769C1279.16 242.795 1279.25 242.826 1279.37 242.826C1279.52 242.826 1279.7 242.769 1279.73 242.586C1279.73 239.649 1279.94 237.279 1280.27 236.592C1280.27 236.44 1280.15 236.409 1280.03 236.409C1279.97 236.409 1279.91 236.409 1279.91 236.409C1279.31 237.279 1275.68 238.237 1273.89 238.237C1274.09 238.029 1274.18 237.94 1274.18 237.638C1274.18 237.222 1273.85 236.862 1273.29 236.862C1272.57 236.862 1272.33 237.19 1272.33 237.55C1272.33 237.909 1272.39 238.118 1272.66 238.3C1272.66 238.3 1270.62 238.237 1270.05 238.092C1270.05 236.498 1270.29 230.743 1270.5 229.696C1273.97 229.696 1275.8 229.873 1277.25 230.534C1278.62 231.164 1279.49 232.602 1279.61 234.19C1279.67 234.222 1279.76 234.253 1279.85 234.253C1280.03 234.253 1280.21 234.159 1280.27 234.013C1280.21 233.56 1280.18 233.081 1280.18 232.545C1280.18 230.982 1280.45 229.154 1281.23 227.836C1282.19 226.185 1283.84 225.826 1283.84 225.378C1283.84 225.227 1283.6 224.956 1283.18 224.956C1282.76 224.956 1281.41 226.336 1280.45 228.227C1277.54 228.498 1271.28 228.706 1268.28 228.706C1265.28 228.706 1264.41 228.315 1263.93 228.315C1263.45 228.315 1263.15 228.467 1263.15 228.763C1263.15 229.034 1263.66 229.185 1264.14 229.185C1264.29 229.185 1264.5 229.185 1264.71 229.185C1265.25 229.185 1265.88 229.217 1266.3 229.394C1266.57 230.263 1266.96 233.534 1266.96 239.17C1266.96 245.586 1266.51 248.555 1265.91 249.211C1263.75 249.362 1259.07 251.159 1258.71 252.243C1258.71 252.269 1258.71 252.269 1258.71 252.3C1258.71 252.42 1258.92 252.482 1259.07 252.482C1259.55 252.482 1262.46 249.784 1267.83 249.784C1274.01 249.784 1275.51 249.993 1280.33 250.503Z" fill="#4B87F0"/>
<path id="Vector_17" d="M1289.8 249.123C1291.45 249.451 1293.82 250.743 1297.18 250.743C1302.78 250.743 1309.44 246.217 1309.44 238.331C1309.44 230.862 1303.86 226.727 1297.96 226.727C1297.93 226.727 1297.93 226.727 1297.9 226.727C1294.63 226.727 1290.83 229.003 1289.05 229.003C1289.02 229.003 1288.97 229.003 1288.93 229.003C1286.99 229.003 1285.18 228.315 1284.65 228.315C1284.08 228.315 1284.02 228.555 1284.02 228.857C1284.02 228.883 1284.02 228.883 1284.02 228.914C1284.02 229.097 1284.14 229.217 1284.77 229.217C1285.52 229.217 1287.71 229.576 1288.15 230.144C1288.9 231.076 1288.97 233.894 1288.97 237.368C1288.93 243.633 1288.46 247.024 1287.86 248.284C1286.89 250.352 1283.9 251.493 1282.7 251.493C1281.62 251.493 1282.07 251.279 1281.44 251.279C1281.08 251.279 1281.05 251.31 1281.05 251.461C1281.05 251.493 1281.05 251.519 1281.05 251.581C1281.05 251.821 1281.47 252.123 1282.43 252.123C1282.46 252.123 1282.46 252.123 1282.49 252.123C1285.16 252.123 1287.62 250.05 1289.8 249.123ZM1298.11 249.539C1295.62 249.539 1293.28 247.831 1292.65 246.815C1292.11 245.946 1292.08 243.154 1292.08 240.519C1292.08 240.248 1292.08 240.008 1292.08 239.737C1292.08 236.138 1292.14 230.654 1292.74 229.847C1293.61 228.706 1295.59 227.956 1297.15 227.956C1302.01 227.956 1305.03 232.211 1305.03 240.097C1305.03 247.383 1300.87 249.539 1298.11 249.539Z" fill="#4B87F0"/>
<path id="Vector_18" d="M1313.43 226.758C1313.34 226.664 1313.24 226.607 1313.16 226.607C1313.04 226.607 1312.97 226.664 1312.95 226.784C1312.95 226.935 1312.92 227.118 1312.92 227.295C1312.92 228.133 1313.04 229.034 1313.04 229.696C1313.04 230.472 1312.89 231.883 1312.71 232.394C1312.71 232.394 1312.77 232.482 1312.83 232.482C1312.85 232.482 1312.92 232.482 1312.95 232.425C1313.34 232.065 1315.46 230.055 1318.7 230.055C1318.76 230.055 1318.79 230.055 1318.85 230.055C1316.28 231.821 1313.46 235.873 1313.46 239.56C1313.46 246.993 1320.65 250.289 1324.43 250.289C1327.99 250.289 1329.65 248.373 1330.55 247.711C1330.55 247.774 1330.55 247.805 1330.55 247.862C1330.55 249.034 1331.3 250.05 1332.65 250.05C1333.15 250.05 1333.87 249.784 1334.26 249.539C1334.38 250.982 1335.52 252.092 1336.3 252.092C1336.9 252.092 1337.47 251.758 1337.47 251.399C1337.47 250.862 1337.14 250.592 1336.72 250.592C1336.3 250.592 1336.27 251.013 1336.09 251.279C1334.98 250.68 1334.44 250.081 1334.44 241.477C1334.44 234.852 1335.13 229.664 1335.43 229.217C1335.88 229.097 1337.98 229.003 1337.98 229.003C1338.07 228.914 1338.1 228.795 1338.1 228.675C1338.1 228.524 1338.04 228.378 1337.98 228.315C1336.33 228.378 1335.52 228.706 1333.81 228.706C1332.1 228.706 1328.27 228.435 1326.56 228.315C1326.47 228.404 1326.44 228.555 1326.44 228.675C1326.44 228.795 1326.47 228.914 1326.56 228.977C1327.04 229.065 1327.67 229.097 1328.3 229.097C1328.69 229.097 1329.14 229.097 1329.49 229.097C1330.24 229.097 1330.84 229.123 1331.05 229.274C1331.54 229.664 1331.56 231.253 1331.56 235.93C1331.56 240.399 1331.35 242.795 1330.48 245.467C1330.09 246.633 1328.06 249.034 1325.27 249.034C1321.04 249.034 1317.44 244.477 1317.44 237.399C1317.44 232.394 1320.98 229.362 1322.48 229.065C1322.48 229.034 1322.48 229.003 1322.48 228.946C1322.48 228.857 1322.48 228.706 1322.48 228.706C1321.46 228.795 1321.43 228.795 1319.9 228.795C1318.37 228.795 1314.35 228.675 1313.52 227.956L1313.43 226.758Z" fill="#4B87F0"/>
<path id="Vector_19" d="M1359.48 248.795C1359.65 249.659 1360.31 252.362 1360.76 252.362C1361 252.362 1361.15 252.3 1361.15 252.06C1361.15 251.581 1359.11 247.862 1359.11 240.519C1359.11 230.534 1362.77 227.326 1362.77 227.024C1362.77 226.696 1362.77 226.519 1362.38 226.519C1361.9 226.519 1361.3 226.998 1360.28 229.873C1357.88 228.795 1355.28 227.868 1352.4 227.868C1345.21 227.868 1339.6 233.352 1339.6 239.888C1339.6 245.555 1344.34 250.649 1350.69 250.649C1354.5 250.649 1357.38 249.842 1359.48 248.795ZM1358.75 245.133C1357.98 247.081 1354.77 249.451 1351.32 249.451C1347.12 249.451 1343.74 245.133 1343.74 238.868C1343.74 232.81 1346.52 228.977 1351.71 228.977C1354.74 228.977 1358.3 232.482 1358.9 234.612C1358.61 236.472 1358.54 237.909 1358.54 239.586C1358.54 241.269 1358.54 243.097 1358.75 245.133Z" fill="#4B87F0"/>
<path id="Vector_20" d="M1378.81 249.154C1376.98 249.243 1371.47 249.69 1371.47 250.592C1371.47 250.8 1371.82 250.862 1371.94 250.862C1373.62 250.862 1374.91 249.722 1380.52 249.722C1384.92 249.722 1385.82 250.144 1386.37 250.144C1386.61 250.144 1386.73 250.024 1386.73 249.873C1386.73 249.69 1386.61 249.513 1386.39 249.394C1386.25 249.3 1384.54 249.243 1382.94 249.123C1382.41 247.024 1382.41 242.555 1382.41 238.477C1382.41 234.404 1382.8 230.295 1383.04 229.305C1384.6 229.217 1385.5 229.154 1385.94 229.154C1386.33 229.154 1386.69 228.826 1386.69 228.644C1386.69 228.498 1386.57 228.315 1386.3 228.315C1385.91 228.315 1382.86 228.737 1378.12 228.737C1373.23 228.737 1366.46 228.644 1363.43 228.315C1363.22 228.404 1363.13 228.524 1363.13 228.644C1363.13 228.857 1363.4 229.097 1363.55 229.217C1364.3 229.336 1365.59 229.362 1367.03 229.362C1369.3 229.362 1372.03 229.274 1373.8 229.274C1374.28 229.274 1374.7 229.305 1375 229.305C1369.45 232.065 1365.08 239.586 1365.08 243.034C1365.08 245.347 1366.25 246.034 1367.39 246.362C1366.43 253.711 1362.14 255.118 1360.16 255.118C1358.72 255.118 1358.15 254.519 1358.06 254.128C1358.27 253.888 1358.45 254.039 1358.45 253.618C1358.45 253.201 1358.12 253.081 1357.88 253.081C1357.64 253.081 1357.19 253.409 1357.19 253.831C1357.19 254.821 1358.06 255.748 1360.31 255.748C1361.51 255.748 1364.12 254.94 1365.77 252.899C1367.99 250.17 1368.74 244.326 1369.66 240.67C1369.76 240.67 1370 240.67 1370.36 240.67C1372.51 240.67 1378.78 240.727 1379.32 240.727C1379.32 240.878 1379.35 241.118 1379.35 241.388C1379.35 243.336 1378.99 247.805 1378.81 249.154ZM1379.32 238.029C1378.93 238.092 1376.8 238.118 1374.7 238.118C1372.63 238.118 1370.56 238.092 1370.32 238.06C1371.19 234.581 1373.56 229.487 1378.72 229.487C1379.05 229.784 1379.29 237.248 1379.32 238.029ZM1379.32 239.44H1370.03L1370.17 238.81H1379.32V239.44Z" fill="#4B87F0"/>
<path id="Vector_21" d="M1407.77 234.732C1407.77 232.394 1408.25 228.253 1409.15 226.368C1409.09 226.336 1409 226.305 1408.91 226.305C1408.76 226.305 1408.61 226.368 1408.55 226.519C1408.28 226.638 1408.19 227.987 1407.65 228.227C1405.67 228.524 1401.44 228.737 1398.05 228.737C1397.06 228.737 1395.9 228.763 1394.7 228.763C1392.06 228.763 1389.27 228.644 1387.86 228.013C1387.74 227.414 1387.77 226.248 1387.71 225.555C1387.59 225.467 1387.44 225.409 1387.29 225.409C1387.2 225.409 1387.11 225.435 1387.02 225.498C1387.02 225.529 1387.02 225.555 1387.02 225.555C1387.02 226.097 1387.29 227.508 1387.29 229.336C1387.29 229.394 1387.29 229.456 1387.29 229.487C1387.29 231.555 1386.75 234.67 1386.69 235.753C1386.75 235.779 1386.81 235.81 1386.87 235.81C1387.08 235.81 1387.32 235.659 1387.32 235.659C1387.41 233.831 1387.92 232.394 1388.49 231.795C1389.18 231.076 1391.82 230.206 1394.91 230.206C1395.18 230.206 1395.44 230.232 1395.75 230.232C1395.93 230.925 1396.11 235.3 1396.11 237.852C1396.11 240.638 1395.51 249.06 1394.88 249.211C1392.27 249.42 1389.93 249.06 1389.93 249.873C1389.93 250.081 1390.11 250.144 1390.38 250.144C1390.65 250.144 1391.94 249.753 1397.06 249.753C1402.52 249.753 1404.23 250.144 1404.77 250.144C1404.83 250.144 1404.92 250.17 1404.98 250.17C1405.1 250.17 1405.19 250.112 1405.19 249.93C1405.19 249.274 1401.11 249.42 1400.12 249.211C1399.7 249.06 1399.43 243.784 1399.43 239.347C1399.43 238.836 1399.43 238.269 1399.43 237.67C1399.43 234.789 1399.47 231.076 1399.94 230.112C1400.06 230.112 1400.27 230.112 1400.54 230.112C1401.86 230.112 1404.62 230.263 1406.18 231.555C1407.05 232.305 1407.23 232.842 1407.23 233.503C1407.23 233.92 1407.17 234.373 1407.17 234.94C1407.17 235.269 1407.29 235.451 1407.44 235.451C1407.56 235.451 1407.65 235.388 1407.77 235.269V234.732Z" fill="#4B87F0"/>
<path id="Vector_22" d="M1413.37 248.763C1412.53 249.394 1409.24 248.795 1409.24 249.873C1409.24 250.081 1409.42 250.144 1409.68 250.144C1409.95 250.144 1409.05 249.873 1414.9 249.873C1420.36 249.873 1421.17 250.263 1421.5 250.263C1421.83 250.263 1422.07 250.144 1422.07 249.81C1422.07 249.42 1421.5 249.211 1421.05 249.211C1420.33 249.211 1419.73 249.243 1419.13 249.243C1418.65 249.243 1418.17 249.211 1417.66 249.18C1417.36 249.18 1417.27 244.414 1417.27 241.446C1417.27 240.638 1417.27 239.946 1417.3 239.56C1417.51 239.8 1417.78 240.097 1418.17 240.097C1418.56 240.097 1418.98 239.649 1418.98 238.93C1418.98 238.211 1418.56 237.727 1418.11 237.727C1417.78 237.727 1417.54 237.998 1417.3 238.237C1417.48 236.951 1417.6 229.664 1418.17 229.513C1418.59 229.456 1421.77 229.633 1421.77 228.675C1421.77 228.404 1421.56 228.315 1421.2 228.315C1420.84 228.315 1419.85 228.795 1416.46 228.795C1413.28 228.795 1410.23 228.315 1410.02 228.315C1409.8 228.315 1409.42 228.378 1409.42 228.763C1409.42 229.217 1410.26 229.305 1413.67 229.487C1414.15 229.815 1414.18 234.732 1414.18 237.55C1414.18 237.878 1414.18 238.18 1414.18 238.42C1414 238.092 1413.76 237.94 1413.43 237.94C1413.11 237.94 1412.53 238.092 1412.53 239.107C1412.53 240.128 1413.25 240.248 1413.52 240.248C1413.79 240.248 1413.98 240.097 1414.18 239.946C1414.18 240.159 1414.18 240.368 1414.18 240.576C1414.18 245.524 1413.82 248.612 1413.37 248.763Z" fill="#4B87F0"/>
<path id="Vector_23" d="M1435.53 250.68C1442.18 250.68 1446.89 243.784 1446.89 238.331C1446.89 232.211 1441.43 227.805 1435.29 227.805C1428.24 227.805 1422.67 233.623 1422.67 239.977C1422.67 246.722 1429.32 250.68 1435.53 250.68ZM1435.71 249.571C1435.68 249.571 1435.68 249.571 1435.65 249.571C1431.84 249.571 1427.22 246.243 1427.22 238.836C1427.22 233.774 1429.05 228.914 1434.6 228.914C1438.95 228.914 1442.57 233.263 1442.57 240.19C1442.57 244.987 1440.11 249.571 1435.71 249.571Z" fill="#4B87F0"/>
<path id="Vector_24" d="M1472.01 251.821C1472.01 251.789 1472.13 251.758 1472.16 251.701C1472.19 251.399 1472.19 250.623 1472.19 249.633C1472.19 247.446 1472.16 244.144 1472.16 242.107C1472.16 241.149 1472.16 240.487 1472.19 240.279C1472.43 240.159 1473.75 240.008 1473.75 239.826C1473.75 239.649 1472.82 239.586 1472.25 239.44C1472.52 239.258 1472.97 239.081 1472.97 238.597C1472.97 238.118 1472.52 237.909 1472.37 237.727C1472.52 237.638 1473.78 237.487 1473.78 237.222C1473.78 237.071 1473 237.039 1472.46 236.92C1472.46 236.081 1473.06 231.013 1473.84 229.487C1474.44 229.305 1476.3 229.123 1476.3 228.586C1476.3 228.378 1476.18 228.315 1476.03 228.315C1475.85 228.315 1475.34 228.795 1471.47 228.795C1465.81 228.795 1465.42 228.315 1465.09 228.315C1464.82 228.315 1464.79 228.524 1464.79 228.675C1464.79 228.706 1464.79 228.737 1464.79 228.737C1464.79 229.607 1468.81 229.425 1469.37 229.545C1469.7 229.873 1470.75 233.92 1470.75 236.951C1470.24 236.951 1469.7 237.102 1469.7 237.279C1469.7 237.368 1470.45 237.487 1470.84 237.67C1470.45 237.909 1470.16 238.029 1470.16 238.508C1470.16 238.987 1470.54 239.138 1470.84 239.498C1470.66 239.586 1469.41 239.586 1469.41 239.8C1469.41 239.977 1470.45 240.097 1470.78 240.097C1470.9 240.727 1470.93 242.555 1470.93 243.935C1470.93 244.774 1470.9 245.467 1470.9 245.586C1465.66 241.086 1451.33 226.998 1451.33 226.998C1451.38 228.675 1451.38 229.034 1451.42 231.315C1451.42 231.612 1451.42 231.914 1451.42 232.243C1451.42 234.763 1451.33 237.43 1451.26 237.789C1450.79 237.909 1449.76 238.118 1449.76 238.211C1449.76 238.388 1450.63 238.42 1451.18 238.571C1450.99 238.748 1450.48 239.081 1450.48 239.586C1450.48 240.097 1450.99 240.368 1451.14 240.638C1450.73 240.696 1449.86 240.815 1449.86 241.029C1449.86 241.237 1450.82 241.175 1451.3 241.269C1451.14 243.784 1450.43 248.852 1450.07 249.123C1448.06 249.42 1445.03 250.8 1445.03 251.071C1445.03 251.342 1445.12 251.373 1445.33 251.373C1446.98 250.352 1449.83 249.722 1451.42 249.722C1454.14 249.722 1457.83 250.144 1458.13 250.144C1458.43 250.144 1458.49 250.144 1458.49 249.873C1458.49 249.331 1455.43 249.451 1454.14 249.211C1453.81 248.581 1452.88 244.862 1452.68 241.295C1452.97 241.206 1454.3 241.206 1454.3 240.909C1454.3 240.758 1452.85 240.758 1452.61 240.67C1452.85 240.576 1453.57 240.128 1453.57 239.649C1453.57 239.17 1453.09 238.836 1452.68 238.571C1453.04 238.451 1453.91 238.18 1453.91 238.118C1453.91 237.94 1453.16 237.852 1452.58 237.852C1452.56 236.951 1452.53 235.18 1452.46 233.68C1453.93 235.003 1458.7 239.769 1463.32 243.998C1467.46 247.805 1470.63 250.383 1472.01 251.821Z" fill="#4B87F0"/>
</g>
<g id="Experience">
<path id="Vector_25" d="M1280.33 808.505C1280.39 808.385 1280.42 808.266 1280.42 808.083C1280.42 807.693 1280.3 807.062 1280.3 805.953C1280.3 804.604 1280.33 803.078 1280.33 802.536C1280.21 802.448 1280.12 802.448 1280.03 802.448C1279.88 802.448 1279.79 802.536 1279.79 802.536C1279.73 803.016 1279.49 804.578 1279.07 804.937C1277.84 805.984 1274.76 806.615 1271.88 806.615C1271.37 806.615 1270.83 806.615 1270.32 806.557C1270.11 806.047 1270.02 802.656 1270.02 799.75C1270.02 798.88 1270.02 798.042 1270.05 797.349C1270.65 797.26 1271.34 797.203 1271.94 797.203C1272.23 797.203 1272.54 797.229 1272.75 797.26C1272.51 797.38 1272.3 797.74 1272.3 797.979C1272.3 798.49 1272.75 798.76 1273.17 798.76C1273.58 798.76 1274.16 798.552 1274.16 798.01C1274.16 797.708 1274.01 797.443 1273.82 797.292C1273.94 797.292 1274.06 797.292 1274.18 797.292C1275.78 797.292 1277.93 797.948 1279.07 798.911C1279.1 799.057 1279.1 799.328 1279.1 799.63C1279.1 799.87 1279.1 800.109 1279.1 800.318C1279.1 800.526 1279.1 800.677 1279.13 800.771C1279.16 800.797 1279.25 800.828 1279.37 800.828C1279.52 800.828 1279.7 800.771 1279.73 800.588C1279.73 797.651 1279.94 795.281 1280.27 794.594C1280.27 794.443 1280.15 794.411 1280.03 794.411C1279.97 794.411 1279.91 794.411 1279.91 794.411C1279.31 795.281 1275.68 796.24 1273.89 796.24C1274.09 796.031 1274.18 795.943 1274.18 795.641C1274.18 795.224 1273.85 794.865 1273.29 794.865C1272.57 794.865 1272.33 795.193 1272.33 795.552C1272.33 795.911 1272.39 796.12 1272.66 796.302C1272.66 796.302 1270.62 796.24 1270.05 796.094C1270.05 794.5 1270.29 788.745 1270.5 787.698C1273.97 787.698 1275.8 787.875 1277.25 788.536C1278.62 789.167 1279.49 790.604 1279.61 792.193C1279.67 792.224 1279.76 792.255 1279.85 792.255C1280.03 792.255 1280.21 792.161 1280.27 792.016C1280.21 791.562 1280.18 791.083 1280.18 790.547C1280.18 788.984 1280.45 787.156 1281.23 785.838C1282.19 784.187 1283.84 783.828 1283.84 783.38C1283.84 783.229 1283.6 782.958 1283.18 782.958C1282.76 782.958 1281.41 784.338 1280.45 786.229C1277.54 786.5 1271.28 786.708 1268.28 786.708C1265.28 786.708 1264.41 786.318 1263.93 786.318C1263.45 786.318 1263.15 786.469 1263.15 786.766C1263.15 787.036 1263.66 787.187 1264.14 787.187C1264.29 787.187 1264.5 787.187 1264.71 787.187C1265.25 787.187 1265.88 787.219 1266.3 787.396C1266.57 788.266 1266.96 791.536 1266.96 797.172C1266.96 803.588 1266.51 806.557 1265.91 807.213C1263.75 807.365 1259.07 809.161 1258.71 810.245C1258.71 810.271 1258.71 810.271 1258.71 810.302C1258.71 810.422 1258.92 810.484 1259.07 810.484C1259.55 810.484 1262.46 807.786 1267.83 807.786C1274.01 807.786 1275.51 807.995 1280.33 808.505Z" fill="#4B87F0"/>
<path id="Vector_26" d="M1300.72 808.234C1302.28 807.786 1303.18 807.724 1304.58 807.724C1305.9 807.724 1307.31 808.146 1308.09 808.146C1308.33 808.146 1308.42 808.146 1308.42 807.995C1308.42 807.542 1306.98 807.036 1305.66 806.974C1304.04 805.536 1298.74 797.948 1296.94 795.344C1298.95 793.963 1306.2 789.135 1306.2 787.099C1306.2 786.677 1305.76 786.469 1305.36 786.469C1305.3 786.469 1305.24 786.469 1305.21 786.469C1303.98 786.526 1302.91 786.62 1302.04 786.62C1300.81 786.62 1300.11 786.62 1298.89 786.62C1298.8 786.646 1298.65 786.797 1298.65 786.948C1298.65 787.036 1298.71 787.125 1298.83 787.219C1300.03 787.276 1301.61 787.099 1301.61 788.594C1301.61 790.125 1300.47 791.776 1296.34 794.5C1295.8 793.812 1292.05 788.385 1291.54 787.307C1293.37 787.219 1295.83 787.365 1295.83 786.526C1295.83 786.255 1295.71 786.255 1295.53 786.255C1295.35 786.255 1291.78 786.708 1289.39 786.708C1286.95 786.708 1284.11 786.437 1283.33 786.318C1283.24 786.38 1283.21 786.526 1283.21 786.62C1283.21 786.708 1283.24 786.797 1283.27 786.828C1283.63 787.187 1284.61 787.338 1285.76 787.396C1285.76 787.396 1285.76 787.396 1285.79 787.396C1286.63 787.396 1292.35 795.672 1293.22 796.932C1286.18 801.729 1284.41 804.755 1284.41 806.193C1284.41 806.885 1284.53 806.823 1284.65 807.156C1282.04 807.516 1279.4 809.792 1279.4 811.052C1279.4 811.682 1279.82 812.01 1280.03 812.01C1280.24 812.01 1280.3 811.979 1280.3 811.922C1280.3 811.833 1280.15 811.62 1280.15 811.203C1280.15 810.484 1280.63 809.734 1281.41 809.193C1282.94 808.146 1283.57 807.724 1285.96 807.724C1289.51 807.724 1292.98 808.115 1294.54 808.115C1294.54 808.115 1294.6 807.963 1294.6 807.812C1294.6 807.693 1294.54 807.542 1294.39 807.484C1290.26 807.484 1288.54 807.213 1288.54 805.203C1288.54 802.927 1291 799.568 1293.76 797.682C1295.08 799.057 1300.51 806.646 1300.72 808.234Z" fill="#4B87F0"/>
<path id="Vector_27" d="M1311.36 807.005C1307.4 807.396 1303.95 809.312 1303.95 810.333C1303.95 810.391 1303.95 810.422 1303.95 810.484C1303.95 810.661 1303.98 810.87 1304.19 810.87C1304.94 810.87 1305.81 807.755 1312.8 807.755C1317.86 807.755 1321.67 808.203 1322.42 808.203C1322.45 808.203 1322.45 808.203 1322.48 808.203C1322.6 808.203 1322.72 808.172 1322.72 807.906C1322.72 807.516 1322.06 807.365 1321.61 807.302C1320.41 807.182 1317.42 807.214 1316.21 807.005C1315.73 806.917 1315.49 802.177 1315.49 797.74C1315.49 793.365 1315.95 788.719 1316.39 787.849C1316.96 786.74 1318.07 786.135 1320.05 786.135C1322.3 786.135 1325.48 788.687 1325.48 793.182C1325.48 798.937 1322.21 800.141 1320.29 800.141C1318.58 800.141 1317.32 799.328 1316.75 799.328C1316.51 799.328 1316.39 799.479 1316.39 799.87C1316.39 800.797 1318.17 801.156 1319.15 801.156C1322.75 801.156 1330.07 798.432 1330.07 792.552C1330.07 789.318 1327.01 785.151 1320.86 785.151C1317.35 785.151 1315.49 785.99 1313.85 786.885C1310.67 786.885 1308.27 786.318 1308.06 786.318C1307.85 786.318 1307.58 786.38 1307.58 786.766C1307.58 787.219 1309.8 786.979 1310.97 787.729C1311.63 788.146 1312.05 790.068 1312.05 797.109C1312.05 801.427 1311.6 806.797 1311.36 807.005Z" fill="#4B87F0"/>
<path id="Vector_28" d="M1347.96 808.505C1348.02 808.385 1348.05 808.266 1348.05 808.083C1348.05 807.693 1347.93 807.062 1347.93 805.953C1347.93 804.604 1347.96 803.078 1347.96 802.536C1347.84 802.448 1347.75 802.448 1347.66 802.448C1347.51 802.448 1347.42 802.536 1347.42 802.536C1347.36 803.016 1347.12 804.578 1346.7 804.937C1345.48 805.984 1342.39 806.615 1339.51 806.615C1339 806.615 1338.46 806.615 1337.95 806.557C1337.74 806.047 1337.65 802.656 1337.65 799.75C1337.65 798.88 1337.65 798.042 1337.68 797.349C1338.28 797.26 1338.97 797.203 1339.57 797.203C1339.87 797.203 1340.17 797.229 1340.38 797.26C1340.14 797.38 1339.93 797.74 1339.93 797.979C1339.93 798.49 1340.38 798.76 1340.8 798.76C1341.21 798.76 1341.79 798.552 1341.79 798.01C1341.79 797.708 1341.64 797.443 1341.45 797.292C1341.57 797.292 1341.69 797.292 1341.81 797.292C1343.41 797.292 1345.56 797.948 1346.7 798.911C1346.73 799.057 1346.73 799.328 1346.73 799.63C1346.73 799.87 1346.73 800.109 1346.73 800.318C1346.73 800.526 1346.73 800.677 1346.76 800.771C1346.79 800.797 1346.88 800.828 1347 800.828C1347.15 800.828 1347.33 800.771 1347.36 800.588C1347.36 797.651 1347.57 795.281 1347.9 794.594C1347.9 794.443 1347.78 794.411 1347.66 794.411C1347.6 794.411 1347.54 794.411 1347.54 794.411C1346.94 795.281 1343.31 796.24 1341.52 796.24C1341.73 796.031 1341.81 795.943 1341.81 795.641C1341.81 795.224 1341.49 794.865 1340.92 794.865C1340.2 794.865 1339.96 795.193 1339.96 795.552C1339.96 795.911 1340.02 796.12 1340.29 796.302C1340.29 796.302 1338.25 796.24 1337.68 796.094C1337.68 794.5 1337.92 788.745 1338.13 787.698C1341.61 787.698 1343.43 787.875 1344.88 788.536C1346.25 789.167 1347.12 790.604 1347.24 792.193C1347.3 792.224 1347.39 792.255 1347.48 792.255C1347.66 792.255 1347.84 792.161 1347.9 792.016C1347.84 791.562 1347.81 791.083 1347.81 790.547C1347.81 788.984 1348.08 787.156 1348.86 785.838C1349.82 784.187 1351.47 783.828 1351.47 783.38C1351.47 783.229 1351.23 782.958 1350.81 782.958C1350.39 782.958 1349.04 784.338 1348.08 786.229C1345.17 786.5 1338.91 786.708 1335.91 786.708C1332.91 786.708 1332.04 786.318 1331.56 786.318C1331.08 786.318 1330.78 786.469 1330.78 786.766C1330.78 787.036 1331.29 787.187 1331.77 787.187C1331.92 787.187 1332.13 787.187 1332.34 787.187C1332.88 787.187 1333.51 787.219 1333.93 787.396C1334.2 788.266 1334.59 791.536 1334.59 797.172C1334.59 803.588 1334.14 806.557 1333.54 807.213C1331.38 807.365 1326.7 809.161 1326.34 810.245C1326.34 810.271 1326.34 810.271 1326.34 810.302C1326.34 810.422 1326.55 810.484 1326.7 810.484C1327.18 810.484 1330.09 807.786 1335.46 807.786C1341.64 807.786 1343.14 807.995 1347.96 808.505Z" fill="#4B87F0"/>
<path id="Vector_29" d="M1385.85 810.031C1385.85 809.76 1385.77 809.401 1385.56 809.401C1385.47 809.401 1385.37 809.464 1385.25 809.583C1384.74 811.083 1383.46 811.323 1382.62 811.323C1382.23 811.323 1381.93 811.26 1381.93 811.26C1381.84 810.781 1381.51 810.422 1380.97 810.422C1380.94 810.422 1380.91 810.422 1380.91 810.422C1380.43 810.422 1380.31 810.724 1379.98 810.932C1377.85 810.693 1374.89 807.812 1373.39 805.297C1373.86 804.547 1374.22 804.427 1374.22 803.109C1374.22 800.167 1371.65 798.01 1366.4 798.01C1365.98 798.01 1365.53 798.01 1365.08 798.042C1370.03 796 1371.97 794.26 1371.97 790.906V790.875C1371.97 786.797 1367.12 784.698 1364.39 784.698C1364.36 784.698 1364.33 784.698 1364.3 784.698C1362.23 784.698 1359.35 785.687 1357.61 787.036C1357.53 787.068 1357.41 787.068 1357.25 787.068C1356.08 787.068 1353.12 786.318 1352.55 786.318C1352.22 786.318 1351.95 786.286 1351.71 786.286C1351.32 786.286 1351.08 786.349 1351.08 786.708C1351.08 787.219 1353.81 786.646 1354.89 788.026C1355.09 789.286 1355.55 792.344 1355.55 796.781C1355.55 801.187 1355.4 803.047 1354.71 807.005C1353.62 807.062 1352.31 807.182 1351.65 807.302C1350.96 807.422 1350.9 807.755 1350.9 807.875C1350.9 808.026 1350.99 808.146 1351.2 808.146C1351.41 808.146 1352.58 807.724 1356.98 807.724C1360.58 807.724 1363.1 808.146 1363.67 808.146C1364.03 808.146 1364.21 808.115 1364.21 807.844C1364.21 807.156 1361.27 807.276 1359.29 806.974C1358.78 805.776 1358.69 803.229 1358.69 801.187C1358.69 799.568 1358.75 798.281 1358.75 798.281C1358.75 798.281 1362.53 798.49 1364.6 799.51C1371.8 803.047 1375.24 810.63 1380.1 811.562C1380.19 812.042 1380.34 812.37 1380.91 812.37C1381.48 812.37 1381.6 812.161 1381.84 811.922C1381.96 811.891 1382.08 811.891 1382.17 811.891C1382.35 811.891 1382.5 811.922 1382.68 811.922C1382.86 811.922 1383.07 811.891 1383.4 811.833C1384.33 811.62 1385.37 810.99 1385.85 810.031ZM1362.08 797.74C1360.28 797.708 1359.2 797.469 1358.69 797.229C1358.69 794.891 1358.72 789.526 1359.39 788.208C1360.1 786.766 1361.63 785.99 1363.4 785.99C1363.43 785.99 1363.46 785.99 1363.49 785.99C1366.28 786.047 1367.69 789.286 1367.69 792.104C1367.69 796.302 1365.44 797.74 1362.08 797.74Z" fill="#4B87F0"/>
<path id="Vector_30" d="M1379.77 806.766C1378.93 807.396 1375.63 806.797 1375.63 807.875C1375.63 808.083 1375.81 808.146 1376.08 808.146C1376.35 808.146 1375.45 807.875 1381.3 807.875C1386.76 807.875 1387.56 808.266 1387.89 808.266C1388.22 808.266 1388.46 808.146 1388.46 807.812C1388.46 807.422 1387.89 807.213 1387.44 807.213C1386.72 807.213 1386.12 807.245 1385.53 807.245C1385.04 807.245 1384.56 807.213 1384.06 807.182C1383.76 807.182 1383.67 802.417 1383.67 799.448C1383.67 798.641 1383.67 797.948 1383.69 797.562C1383.91 797.802 1384.18 798.099 1384.56 798.099C1384.95 798.099 1385.37 797.651 1385.37 796.932C1385.37 796.213 1384.95 795.729 1384.51 795.729C1384.18 795.729 1383.94 796 1383.69 796.24C1383.87 794.953 1383.99 787.667 1384.56 787.516C1384.98 787.458 1388.16 787.635 1388.16 786.677C1388.16 786.406 1387.95 786.318 1387.59 786.318C1387.23 786.318 1386.24 786.797 1382.85 786.797C1379.68 786.797 1376.62 786.318 1376.41 786.318C1376.2 786.318 1375.81 786.38 1375.81 786.766C1375.81 787.219 1376.65 787.307 1380.07 787.49C1380.55 787.818 1380.58 792.734 1380.58 795.552C1380.58 795.88 1380.58 796.182 1380.58 796.422C1380.4 796.094 1380.16 795.943 1379.83 795.943C1379.5 795.943 1378.93 796.094 1378.93 797.109C1378.93 798.13 1379.65 798.25 1379.92 798.25C1380.19 798.25 1380.37 798.099 1380.58 797.948C1380.58 798.161 1380.58 798.37 1380.58 798.578C1380.58 803.526 1380.22 806.615 1379.77 806.766Z" fill="#4B87F0"/>
<path id="Vector_31" d="M1406.36 808.505C1406.42 808.385 1406.45 808.266 1406.45 808.083C1406.45 807.693 1406.33 807.062 1406.33 805.953C1406.33 804.604 1406.36 803.078 1406.36 802.536C1406.24 802.448 1406.15 802.448 1406.06 802.448C1405.91 802.448 1405.82 802.536 1405.82 802.536C1405.76 803.016 1405.52 804.578 1405.1 804.937C1403.87 805.984 1400.78 806.615 1397.9 806.615C1397.39 806.615 1396.86 806.615 1396.35 806.557C1396.14 806.047 1396.04 802.656 1396.04 799.75C1396.04 798.88 1396.04 798.042 1396.08 797.349C1396.67 797.26 1397.37 797.203 1397.97 797.203C1398.26 797.203 1398.57 797.229 1398.77 797.26C1398.53 797.38 1398.33 797.74 1398.33 797.979C1398.33 798.49 1398.77 798.76 1399.2 798.76C1399.61 798.76 1400.18 798.552 1400.18 798.01C1400.18 797.708 1400.03 797.443 1399.85 797.292C1399.97 797.292 1400.09 797.292 1400.21 797.292C1401.8 797.292 1403.96 797.948 1405.1 798.911C1405.13 799.057 1405.13 799.328 1405.13 799.63C1405.13 799.87 1405.13 800.109 1405.13 800.318C1405.13 800.526 1405.13 800.677 1405.16 800.771C1405.19 800.797 1405.28 800.828 1405.4 800.828C1405.55 800.828 1405.73 800.771 1405.76 800.588C1405.76 797.651 1405.97 795.281 1406.3 794.594C1406.3 794.443 1406.18 794.411 1406.06 794.411C1406 794.411 1405.94 794.411 1405.94 794.411C1405.34 795.281 1401.71 796.24 1399.91 796.24C1400.12 796.031 1400.21 795.943 1400.21 795.641C1400.21 795.224 1399.88 794.865 1399.32 794.865C1398.6 794.865 1398.36 795.193 1398.36 795.552C1398.36 795.911 1398.41 796.12 1398.68 796.302C1398.68 796.302 1396.64 796.24 1396.08 796.094C1396.08 794.5 1396.32 788.745 1396.52 787.698C1400 787.698 1401.83 787.875 1403.27 788.536C1404.65 789.167 1405.52 790.604 1405.64 792.193C1405.7 792.224 1405.79 792.255 1405.88 792.255C1406.06 792.255 1406.24 792.161 1406.3 792.016C1406.24 791.562 1406.21 791.083 1406.21 790.547C1406.21 788.984 1406.48 787.156 1407.26 785.838C1408.22 784.187 1409.87 783.828 1409.87 783.38C1409.87 783.229 1409.63 782.958 1409.21 782.958C1408.79 782.958 1407.44 784.338 1406.48 786.229C1403.57 786.5 1397.3 786.708 1394.3 786.708C1391.31 786.708 1390.44 786.318 1389.96 786.318C1389.48 786.318 1389.18 786.469 1389.18 786.766C1389.18 787.036 1389.69 787.187 1390.17 787.187C1390.32 787.187 1390.53 787.187 1390.74 787.187C1391.28 787.187 1391.91 787.219 1392.33 787.396C1392.6 788.266 1392.99 791.536 1392.99 797.172C1392.99 803.588 1392.54 806.557 1391.94 807.213C1389.78 807.365 1385.1 809.161 1384.74 810.245C1384.74 810.271 1384.74 810.271 1384.74 810.302C1384.74 810.422 1384.95 810.484 1385.1 810.484C1385.58 810.484 1388.49 807.786 1393.86 807.786C1400.03 807.786 1401.53 807.995 1406.36 808.505Z" fill="#4B87F0"/>
<path id="Vector_32" d="M1434.57 809.823C1434.57 809.792 1434.69 809.76 1434.72 809.703C1434.75 809.401 1434.75 808.625 1434.75 807.635C1434.75 805.448 1434.72 802.146 1434.72 800.109C1434.72 799.151 1434.72 798.49 1434.75 798.281C1434.99 798.161 1436.31 798.01 1436.31 797.828C1436.31 797.651 1435.38 797.588 1434.81 797.443C1435.08 797.26 1435.53 797.083 1435.53 796.599C1435.53 796.12 1435.08 795.911 1434.93 795.729C1435.08 795.641 1436.34 795.49 1436.34 795.224C1436.34 795.073 1435.56 795.042 1435.02 794.922C1435.02 794.083 1435.62 789.016 1436.4 787.49C1437 787.307 1438.86 787.125 1438.86 786.588C1438.86 786.38 1438.74 786.318 1438.59 786.318C1438.41 786.318 1437.89 786.797 1434.03 786.797C1428.36 786.797 1427.97 786.318 1427.64 786.318C1427.37 786.318 1427.34 786.526 1427.34 786.677C1427.34 786.708 1427.34 786.74 1427.34 786.74C1427.34 787.609 1431.36 787.427 1431.93 787.547C1432.26 787.875 1433.31 791.922 1433.31 794.953C1432.8 794.953 1432.26 795.104 1432.26 795.281C1432.26 795.37 1433.01 795.49 1433.4 795.672C1433.01 795.911 1432.71 796.031 1432.71 796.51C1432.71 796.99 1433.1 797.141 1433.4 797.5C1433.22 797.588 1431.96 797.588 1431.96 797.802C1431.96 797.979 1433.01 798.099 1433.34 798.099C1433.46 798.729 1433.49 800.557 1433.49 801.937C1433.49 802.776 1433.46 803.469 1433.46 803.588C1428.21 799.088 1413.88 785 1413.88 785C1413.94 786.677 1413.94 787.036 1413.97 789.318C1413.97 789.615 1413.97 789.917 1413.97 790.245C1413.97 792.766 1413.88 795.432 1413.82 795.792C1413.34 795.911 1412.32 796.12 1412.32 796.213C1412.32 796.391 1413.19 796.422 1413.73 796.573C1413.55 796.75 1413.04 797.083 1413.04 797.588C1413.04 798.099 1413.55 798.37 1413.7 798.641C1413.29 798.698 1412.42 798.818 1412.42 799.031C1412.42 799.24 1413.37 799.177 1413.85 799.271C1413.7 801.786 1412.98 806.854 1412.62 807.125C1410.61 807.422 1407.59 808.802 1407.59 809.073C1407.59 809.344 1407.68 809.375 1407.88 809.375C1409.54 808.354 1412.38 807.724 1413.97 807.724C1416.7 807.724 1420.39 808.146 1420.69 808.146C1420.99 808.146 1421.05 808.146 1421.05 807.875C1421.05 807.333 1417.99 807.453 1416.7 807.213C1416.37 806.583 1415.44 802.865 1415.23 799.297C1415.53 799.208 1416.85 799.208 1416.85 798.911C1416.85 798.76 1415.41 798.76 1415.17 798.672C1415.41 798.578 1416.13 798.13 1416.13 797.651C1416.13 797.172 1415.65 796.838 1415.23 796.573C1415.59 796.453 1416.46 796.182 1416.46 796.12C1416.46 795.943 1415.71 795.854 1415.14 795.854C1415.11 794.953 1415.08 793.182 1415.02 791.682C1416.49 793.005 1421.26 797.771 1425.87 802C1430.01 805.807 1433.19 808.385 1434.57 809.823Z" fill="#4B87F0"/>
<path id="Vector_33" d="M1459.69 806.797C1459.87 807.661 1460.53 810.365 1460.98 810.365C1461.22 810.365 1461.37 810.302 1461.37 810.062C1461.37 809.583 1459.33 805.865 1459.33 798.521C1459.33 788.536 1462.99 785.328 1462.99 785.026C1462.99 784.698 1462.99 784.521 1462.6 784.521C1462.12 784.521 1461.52 785 1460.5 787.875C1458.1 786.797 1455.49 785.87 1452.61 785.87C1445.42 785.87 1439.81 791.354 1439.81 797.891C1439.81 803.557 1444.55 808.651 1450.91 808.651C1454.71 808.651 1457.59 807.844 1459.69 806.797ZM1458.97 803.135C1458.19 805.083 1454.98 807.453 1451.54 807.453C1447.34 807.453 1443.95 803.135 1443.95 796.87C1443.95 790.812 1446.74 786.979 1451.93 786.979C1454.95 786.979 1458.52 790.484 1459.12 792.615C1458.82 794.474 1458.76 795.911 1458.76 797.588C1458.76 799.271 1458.76 801.099 1458.97 803.135Z" fill="#4B87F0"/>
<path id="Vector_34" d="M1480.82 808.505C1480.89 808.385 1480.92 808.266 1480.92 808.083C1480.92 807.693 1480.8 807.062 1480.8 805.953C1480.8 804.604 1480.82 803.078 1480.82 802.536C1480.7 802.448 1480.61 802.448 1480.53 802.448C1480.37 802.448 1480.29 802.536 1480.29 802.536C1480.22 803.016 1479.98 804.578 1479.57 804.937C1478.34 805.984 1475.25 806.615 1472.37 806.615C1471.86 806.615 1471.32 806.615 1470.81 806.557C1470.6 806.047 1470.51 802.656 1470.51 799.75C1470.51 798.88 1470.51 798.042 1470.54 797.349C1471.14 797.26 1471.83 797.203 1472.43 797.203C1472.73 797.203 1473.03 797.229 1473.24 797.26C1473 797.38 1472.79 797.74 1472.79 797.979C1472.79 798.49 1473.24 798.76 1473.66 798.76C1474.08 798.76 1474.65 798.552 1474.65 798.01C1474.65 797.708 1474.5 797.443 1474.32 797.292C1474.44 797.292 1474.56 797.292 1474.68 797.292C1476.27 797.292 1478.43 797.948 1479.57 798.911C1479.59 799.057 1479.59 799.328 1479.59 799.63C1479.59 799.87 1479.59 800.109 1479.59 800.318C1479.59 800.526 1479.59 800.677 1479.62 800.771C1479.66 800.797 1479.74 800.828 1479.86 800.828C1480.02 800.828 1480.2 800.771 1480.22 800.588C1480.22 797.651 1480.44 795.281 1480.77 794.594C1480.77 794.443 1480.65 794.411 1480.53 794.411C1480.46 794.411 1480.41 794.411 1480.41 794.411C1479.81 795.281 1476.18 796.24 1474.38 796.24C1474.59 796.031 1474.68 795.943 1474.68 795.641C1474.68 795.224 1474.35 794.865 1473.78 794.865C1473.06 794.865 1472.82 795.193 1472.82 795.552C1472.82 795.911 1472.88 796.12 1473.15 796.302C1473.15 796.302 1471.11 796.24 1470.54 796.094C1470.54 794.5 1470.78 788.745 1470.99 787.698C1474.47 787.698 1476.3 787.875 1477.74 788.536C1479.11 789.167 1479.98 790.604 1480.1 792.193C1480.17 792.224 1480.25 792.255 1480.34 792.255C1480.53 792.255 1480.7 792.161 1480.77 792.016C1480.7 791.562 1480.68 791.083 1480.68 790.547C1480.68 788.984 1480.95 787.156 1481.72 785.838C1482.68 784.187 1484.33 783.828 1484.33 783.38C1484.33 783.229 1484.09 782.958 1483.67 782.958C1483.25 782.958 1481.91 784.338 1480.95 786.229C1478.04 786.5 1471.77 786.708 1468.77 786.708C1465.78 786.708 1464.91 786.318 1464.43 786.318C1463.95 786.318 1463.65 786.469 1463.65 786.766C1463.65 787.036 1464.16 787.187 1464.64 787.187C1464.79 787.187 1464.99 787.187 1465.2 787.187C1465.74 787.187 1466.37 787.219 1466.8 787.396C1467.06 788.266 1467.45 791.536 1467.45 797.172C1467.45 803.588 1467 806.557 1466.41 807.213C1464.24 807.365 1459.57 809.161 1459.21 810.245C1459.21 810.271 1459.21 810.271 1459.21 810.302C1459.21 810.422 1459.42 810.484 1459.57 810.484C1460.05 810.484 1462.96 807.786 1468.32 807.786C1474.5 807.786 1476 807.995 1480.82 808.505Z" fill="#4B87F0"/>
</g>
<g id="line 1">
<circle id="Ellipse 1" cx="722.5" cy="303.5" r="7" fill="#4B87F0" stroke="#4B87F0"/>
<line id="Line 1" x1="719.603" y1="299.431" x2="676.603" y2="257.431" stroke="#4B87F0" stroke-width="4"/>
<line id="Line 2" x1="678" y1="258" x2="509" y2="258" stroke="#4B87F0" stroke-width="4"/>
</g>
<g id="line 4">
<path id="Ellipse 1_2" d="M722.602 778.773C726.397 778.773 729.5 775.592 729.5 771.636C729.499 767.68 726.397 764.5 722.602 764.5C718.807 764.5 715.704 767.68 715.704 771.636C715.704 775.592 718.807 778.773 722.602 778.773Z" fill="#4B87F0" stroke="#4B87F0"/>
<line id="Line 1_2" y1="-2" x2="60.2318" y2="-2" transform="matrix(-0.704217 0.709984 0.687328 0.726347 721.122 777.236)" stroke="#4B87F0" stroke-width="4"/>
<path id="Line 2_2" d="M678.706 818.001L375 818" stroke="#4B87F0" stroke-width="4"/>
</g>
<g id="line 2">
<circle id="Ellipse 1_3" cx="1193.53" cy="772.311" r="7" transform="rotate(179.782 1193.53 772.311)" fill="#4B87F0" stroke="#4B87F0"/>
<line id="Line 1_3" x1="1196.44" y1="776.369" x2="1239.6" y2="818.206" stroke="#4B87F0" stroke-width="4"/>
<path id="Line 2_3" d="M1238.2 817.642L1499 817.642" stroke="#4B87F0" stroke-width="4"/>
</g>
<g id="line 3">
<path id="Ellipse 1_4" d="M1192.76 296.936C1188.82 296.951 1185.67 300.05 1185.68 303.825C1185.7 307.599 1188.87 310.674 1192.81 310.659C1196.75 310.644 1199.9 307.545 1199.89 303.771C1199.87 299.996 1196.7 296.921 1192.76 296.936Z" fill="#4B87F0" stroke="#4B87F0"/>
<line id="Line 1_4" y1="-2" x2="59.9868" y2="-2" transform="matrix(0.723827 -0.689981 -0.712752 -0.701416 1194.28 298.394)" stroke="#4B87F0" stroke-width="4"/>
<path id="Line 2_4" d="M1237.71 258.967L1502.01 258.697" stroke="#4B87F0" stroke-width="4"/>
</g>
</g>
</g>
</svg>
